<?xml version="1.0" encoding="UTF-8" standalone="no"?>
<!DOCTYPE svg PUBLIC "-//W3C//DTD SVG 1.1//EN" "http://www.w3.org/Graphics/SVG/1.1/DTD/svg11.dtd">
<svg width="100%" height="100%" viewBox="0 0 16 16" version="1.1" xmlns="http://www.w3.org/2000/svg" xmlns:xlink="http://www.w3.org/1999/xlink" xml:space="preserve" xmlns:serif="http://www.serif.com/" style="fill-rule:evenodd;clip-rule:evenodd;stroke-linejoin:round;stroke-miterlimit:2;">
    <g transform="matrix(1,0,0,1,58.6927,0.202771)">
        <g transform="matrix(0.228655,0,0,0.228655,-58.4919,-0.00192836)">
            <path d="M4.911,21.919C4.891,21.898 4.872,21.876 4.853,21.853C4.842,21.839 4.831,21.826 4.821,21.811C4.814,21.803 4.808,21.794 4.802,21.785L4.742,21.705C4.633,21.541 4.547,21.374 4.495,21.201L-0.655,4.719C-0.871,4.018 -0.69,3.263 -0.168,2.742C0.353,2.22 1.109,2.039 1.809,2.255L18.301,7.415C18.326,7.423 18.349,7.433 18.373,7.443C18.402,7.455 18.43,7.467 18.456,7.481L18.471,7.488C18.53,7.518 18.589,7.542 18.644,7.57L18.702,7.607C18.721,7.618 18.74,7.629 18.76,7.641L18.769,7.647C18.781,7.655 18.794,7.663 18.805,7.673L18.911,7.755L18.948,7.774C18.948,7.774 19.021,7.838 19.06,7.87C19.072,7.88 19.082,7.885 19.083,7.886L30.635,19.248L50.182,-0.298C50.955,-1.072 52.195,-1.072 52.968,-0.298L64.299,11.032C65.072,11.805 65.072,13.045 64.298,13.818L44.869,33.248C44.869,33.248 58.526,46.39 58.515,46.379C58.714,46.564 58.87,46.791 58.966,47.027C62.508,50.866 62.422,56.875 58.698,60.598C56.854,62.443 54.383,63.465 51.77,63.465C49.36,63.465 47.084,62.593 45.307,61.021C44.996,60.939 44.7,60.787 44.46,60.547C44.46,60.547 30.819,47.288 30.819,47.288L13.808,64.298C13.448,64.659 12.943,64.875 12.42,64.875C11.897,64.875 11.392,64.659 11.032,64.298L-0.298,52.968C-1.072,52.195 -1.072,50.955 -0.298,50.181L16.528,33.365L4.997,22.024L4.992,22.018L4.911,21.919ZM55.923,57.8C57.811,55.92 58.135,53.063 56.907,50.84C56.907,50.84 48.953,58.794 48.952,58.794C51.182,60.013 54.034,59.681 55.923,57.8ZM12.43,60.123C12.43,60.123 28.004,44.539 28.004,44.539L19.329,36.108C19.329,36.108 15.087,40.35 15.087,40.35L19.358,44.622C20.132,45.395 20.132,46.635 19.358,47.408C18.98,47.787 18.475,47.985 17.97,47.985C17.465,47.985 16.96,47.787 16.582,47.408L12.31,43.137L9.538,45.909L13.808,50.171C14.581,50.944 14.582,52.185 13.808,52.958C13.43,53.337 12.925,53.535 12.42,53.535C11.915,53.535 11.41,53.337 11.032,52.958C11.032,52.958 6.76,48.687 6.76,48.687L3.877,51.57L12.43,60.123ZM42.065,30.488L60.123,12.41C60.123,12.41 51.57,3.857 51.57,3.857C51.57,3.857 46.687,8.74 46.687,8.74L50.958,13.012C51.732,13.785 51.732,15.025 50.958,15.798C50.58,16.177 50.075,16.375 49.57,16.375C49.065,16.375 48.56,16.177 48.182,15.798L43.91,11.527C43.91,11.527 40.587,14.85 40.587,14.85L44.858,19.122C45.632,19.895 45.632,21.135 44.858,21.908C44.48,22.287 43.975,22.485 43.47,22.485C42.965,22.485 42.46,22.287 42.082,21.908L37.81,17.637L33.442,22.005L42.065,30.488ZM18.313,14.204C18.131,14.86 17.62,15.371 16.977,15.549C16.977,15.549 13.625,16.535 13.625,16.535C13.625,16.535 12.647,19.862 12.643,19.874C12.461,20.53 11.95,21.041 11.305,21.22L10.136,21.561L20.621,31.875L45.821,56.371C45.821,56.371 54.362,47.822 54.362,47.822L40.683,34.65L40.677,34.643L18.669,12.989C18.669,12.989 18.316,14.193 18.313,14.204Z" style="fill:white;"/>
        </g>
    </g>
</svg>
