<svg viewBox="0 0 16 16" xmlns="http://www.w3.org/2000/svg" xml:space="preserve" fill-rule="evenodd" clip-rule="evenodd" stroke-linejoin="round" stroke-miterlimit="2"><path d="m1.409 5.548-.014-.017-.008-.01-.005-.006-.014-.02a.5.5 0 0 1-.06-.122L.055 1.363A.48.48 0 0 1 .173.88.48.48 0 0 1 .654.763l4.013 1.255.018.007.02.01.003.001.042.02.015.009.014.008.002.002.009.006.025.02.01.005.027.023.005.004 2.811 2.765L12.424.14a.477.477 0 0 1 .678 0l2.757 2.757a.48.48 0 0 1 0 .678l-4.727 4.728 3.32 3.195a.45.45 0 0 1 .11.158c.861.934.84 2.396-.066 3.302a2.37 2.37 0 0 1-1.685.698 2.36 2.36 0 0 1-1.573-.595.45.45 0 0 1-.206-.115l-3.32-3.226-4.138 4.139a.48.48 0 0 1-.338.14.48.48 0 0 1-.338-.14L.141 13.103a.48.48 0 0 1 0-.678l4.095-4.092-2.806-2.76-.001-.001zm12.412 8.73c.46-.457.538-1.152.24-1.693l-1.936 1.935a1.43 1.43 0 0 0 1.696-.242m-10.583.566 3.79-3.792L4.918 9l-1.033 1.032 1.04 1.04a.477.477 0 0 1 0 .678.48.48 0 0 1-.339.14.48.48 0 0 1-.337-.14l-1.04-1.04-.674.675 1.039 1.037a.48.48 0 0 1 0 .678.48.48 0 0 1-.338.14.48.48 0 0 1-.338-.14l-1.04-1.039-.7.702zm7.211-7.211 4.394-4.4-2.081-2.08-1.188 1.188 1.04 1.04a.477.477 0 0 1 0 .677.48.48 0 0 1-.339.14.48.48 0 0 1-.337-.14l-1.04-1.04-.808.81 1.039 1.039a.477.477 0 0 1 0 .678.48.48 0 0 1-.338.14.48.48 0 0 1-.338-.14l-1.04-1.04-1.062 1.063zM4.67 3.67a.47.47 0 0 1-.324.328l-.816.24-.239.812a.47.47 0 0 1-.325.327l-.285.083 2.552 2.51 6.131 5.96 2.078-2.08-3.328-3.205-.001-.001-5.355-5.27z" fill="#fff"/></svg>