<?xml version="1.0" encoding="UTF-8" standalone="no"?>
<!DOCTYPE svg PUBLIC "-//W3C//DTD SVG 1.1//EN" "http://www.w3.org/Graphics/SVG/1.1/DTD/svg11.dtd">
<svg width="100%" height="100%" viewBox="0 0 79 60" version="1.1" xmlns="http://www.w3.org/2000/svg" xmlns:xlink="http://www.w3.org/1999/xlink" xml:space="preserve" xmlns:serif="http://www.serif.com/" style="fill-rule:evenodd;clip-rule:evenodd;stroke-linejoin:round;stroke-miterlimit:2;">
    <g id="menu-icon" transform="matrix(1.00022,0,0,0.923797,0,0)">
        <rect x="0" y="0" width="78.158" height="64.663" style="fill:none;"/>
        <clipPath id="_clip1">
            <rect x="0" y="0" width="78.158" height="64.663"/>
        </clipPath>
        <g clip-path="url(#_clip1)">
            <g transform="matrix(0.99978,0,0,1.08249,-11.0743,-21.5406)">
                <path d="M73.708,28.7C59.701,29.341 31.878,30.461 21.07,29.799C16.325,29.51 13.881,28.699 12.648,27.863C11.783,27.275 11.45,26.651 11.338,26.131C11.197,25.469 11.414,24.939 11.524,24.728L11.525,24.724C12.315,20.755 15.258,19.921 15.258,19.921L15.331,19.899C15.331,19.899 78.964,20.7 78.958,20.7C79.347,20.641 82.451,20.198 85.105,20.866C87.133,21.377 88.885,22.527 89.196,24.838L89.197,24.843C89.336,26.047 89.085,26.899 88.633,27.499C87.961,28.392 86.802,28.748 85.596,28.8C84.988,28.826 84.37,28.777 83.817,28.7L73.708,28.7ZM13.494,53.58C12.771,53.326 12.264,53.031 11.912,52.73C10.594,51.6 11.155,50.313 11.461,49.807C11.295,48.963 11.658,48.186 12.209,47.554C12.343,47.4 12.488,47.255 12.637,47.12C13,46.735 13.435,46.421 13.917,46.196C14.077,46.103 14.176,46.053 14.176,46.053L14.281,46.001C14.281,46.001 14.327,46 14.416,46C14.823,45.87 15.255,45.8 15.7,45.8L48.629,45.8C58.018,45.745 65.658,45.701 65.656,45.701C66.273,45.608 75.823,44.207 82.186,45.058C83.942,45.292 85.462,45.703 86.514,46.339C87.298,46.813 87.836,47.414 88.075,48.145C88.832,50.458 88.495,51.844 87.864,52.684C87.264,53.481 86.352,53.804 85.696,53.95C85.257,54.111 84.787,54.2 84.3,54.2L25.53,54.2C21.448,54.49 18.519,54.443 16.43,54.2L15.7,54.2C14.881,54.2 14.128,53.972 13.494,53.58ZM12.504,49.836C12.501,49.89 12.5,49.945 12.5,50C12.5,50.025 12.5,50.051 12.501,50.076L12.558,50.006L12.504,49.836ZM11.919,76.832C11.657,76.595 11.502,76.523 11.425,76.476C11.287,76.39 11.22,76.299 11.179,76.213C11.135,76.12 11.113,76.016 11.132,75.884C11.139,75.835 11.155,75.773 11.186,75.693C11.231,75.581 11.336,75.37 11.473,74.92C11.316,74.447 11.033,73.182 12.014,72.08C12.467,71.572 13.204,71.087 14.404,70.766C16.054,70.326 18.64,70.182 22.664,70.704C22.92,70.737 23.19,70.769 23.473,70.8L81.13,70.8C83.068,70.739 84.182,70.7 84.182,70.7L84.214,70.699L84.244,70.702C84.244,70.702 86.41,70.906 87.704,71.805C88.207,72.154 88.584,72.605 88.729,73.16C88.863,73.674 88.806,74.293 88.402,75.03C88.483,77.287 86.562,79.2 84.3,79.2L79.324,79.2C75.047,79.372 68.453,79.374 58.234,79.2L25.081,79.2C20.894,79.359 18.409,79.547 16.853,79.604C15.225,79.663 14.513,79.547 13.995,79.201C13.717,79.015 13.489,78.756 13.215,78.393C12.663,77.987 12.217,77.45 11.919,76.832Z" style="fill:white;"/>
            </g>
        </g>
    </g>
</svg>
