<?xml version="1.0" encoding="UTF-8"?>
<svg id="Calque_1" data-name="Calque 1" xmlns="http://www.w3.org/2000/svg" viewBox="0 0 200 200">
  <circle class="cls-1" cx="100" cy="100" r="100" fill="#fff"/>
  <path fill="#000" d="M120.4,119.69c.17,3.14.43,6.31.77,9.49.34,3.19.81,6.29,1.41,9.3l20.1-2.25c-1.3-5.9-2.38-12.04-3.22-18.41-.84-6.37-1.44-12.75-1.8-19.14-.38-6.93-.47-13.81-.25-20.62.22-6.81.53-13.54.92-20.19l-.68-.61c-6.57,1.23-13.22,2.3-19.97,3.22-6.75.92-13.59,1.57-20.53,1.95-6.4.35-12.78.46-19.15.32-6.37-.13-12.61-.52-18.74-1.16l-.02,20.22c3.06.27,6.2.42,9.4.45,3.21.04,6.39-.02,9.53-.2,8.46-.47,16.12-1.49,23-3.07,2.53-.58,4.96-1.2,7.3-1.85-3.57,3.24-7.2,6.78-10.89,10.61-3.7,3.85-7.35,7.78-10.93,11.78l-30.41,34.14,15.27,13.5,30.43-33.81c3.58-4.11,7.07-8.22,10.49-12.33,3.42-4.1,6.54-8.11,9.37-12.01.01-.02.02-.03.04-.05-.39,2.43-.72,4.97-1.01,7.6-.75,7.06-.89,14.76-.43,23.11h0Z"/>
</svg>