<svg viewBox="0 0 15 15" xmlns="http://www.w3.org/2000/svg" xml:space="preserve" fill-rule="evenodd" clip-rule="evenodd" stroke-linejoin="round" stroke-miterlimit="2"><path d="M7.5 0a7.503 7.503 0 0 1 7.499 7.5c0 4.139-3.36 7.5-7.499 7.5C3.36 15 0 11.639 0 7.5S3.36 0 7.5 0m0 .973A6.53 6.53 0 0 0 .974 7.5 6.53 6.53 0 0 0 7.5 14.026 6.53 6.53 0 0 0 14.026 7.5 6.53 6.53 0 0 0 7.5.973" fill="#fff"/><path d="m10.406 8.49-4.145 2.073a1.104 1.104 0 0 1-1.599-.988V5.43a1.106 1.106 0 0 1 1.599-.988l4.145 2.072a1.106 1.106 0 0 1 0 1.976m-.435-.87a.13.13 0 0 0 .072-.118.13.13 0 0 0-.072-.117L5.825 5.313a.13.13 0 0 0-.127.006.13.13 0 0 0-.061.111v4.145a.13.13 0 0 0 .061.111.13.13 0 0 0 .127.006z" fill="#fff"/></svg>