<svg xmlns="http://www.w3.org/2000/svg" xml:space="preserve" fill-rule="evenodd" stroke-linejoin="round" stroke-miterlimit="2" clip-rule="evenodd" viewBox="0 0 15 15"><path fill="#fff" d="M7.4996.0004c4.1395 0 7.4998 3.3604 7.4998 7.4998 0 4.1384-3.3603 7.4998-7.4998 7.4998S-.0002 11.6386-.0002 7.5002c0-4.1394 3.3604-7.4998 7.4998-7.4998m0 .9729C3.8973.9733.9737 3.898.9737 7.5003c0 3.6012 2.9236 6.5258 6.526 6.5258 3.6012 0 6.5258-2.9246 6.5258-6.5259 0-3.6022-2.9246-6.527-6.5259-6.527"/><path fill="#fff" d="m10.4058 8.49-4.1447 2.0732a1.104 1.104 0 0 1-1.0747-.049 1.104 1.104 0 0 1-.5242-.9394V5.43c0-.383.1986-.7384.5242-.9402a1.106 1.106 0 0 1 1.0747-.0482l4.1447 2.0723c.3746.1877.6105.5698.6105.9884s-.2359.8007-.6105.9876m-.4352-.8704a.132.132 0 0 0 .0723-.1172.132.132 0 0 0-.0723-.117L5.8251 5.313a.129.129 0 0 0-.1271.0058.13.13 0 0 0-.0615.1113v4.1447a.131.131 0 0 0 .0615.1113.131.131 0 0 0 .127.0058z"/></svg>