<?xml version="1.0" encoding="UTF-8" standalone="no"?>
<!DOCTYPE svg PUBLIC "-//W3C//DTD SVG 1.1//EN" "http://www.w3.org/Graphics/SVG/1.1/DTD/svg11.dtd">
<svg width="100%" height="100%" viewBox="0 0 15 15" version="1.1" xmlns="http://www.w3.org/2000/svg" xmlns:xlink="http://www.w3.org/1999/xlink" xml:space="preserve" xmlns:serif="http://www.serif.com/" style="fill-rule:evenodd;clip-rule:evenodd;stroke-linejoin:round;stroke-miterlimit:2;">
    <g id="Plan-de-travail1" serif:id="Plan de travail1" transform="matrix(1,0,0,1,28.1874,-14.9586)">
        <rect x="-28.187" y="14.959" width="14.632" height="14.632" style="fill:none;"/>
        <g transform="matrix(0.156075,0,0,0.156075,-28.6751,14.4709)">
            <path d="M50,3.125C24.152,3.125 3.125,24.152 3.125,50C3.125,75.848 24.152,96.875 50,96.875C75.848,96.875 96.875,75.848 96.875,50C96.875,24.152 75.848,3.125 50,3.125ZM69.73,70.738C70.902,65.418 71.613,59.484 71.789,53.125L90.496,53.125C89.894,60.984 87.042,68.215 82.589,74.191C78.375,72.75 74.078,71.601 69.73,70.738L69.73,70.738ZM17.41,74.191C12.953,68.215 10.105,60.984 9.504,53.125L28.211,53.125C28.39,59.485 29.101,65.414 30.269,70.738C25.922,71.601 21.625,72.75 17.406,74.187L17.41,74.191ZM30.269,29.281C29.101,34.598 28.39,40.523 28.21,46.875L9.503,46.875C10.105,39.016 12.953,31.785 17.41,25.813C21.632,27.258 25.921,28.415 30.269,29.282L30.269,29.281ZM36.433,30.336C40.91,30.941 45.441,31.25 49.999,31.25C54.557,31.25 59.085,30.945 63.565,30.336C64.663,35.207 65.37,40.781 65.557,46.875L34.44,46.875C34.628,40.785 35.339,35.211 36.433,30.336L36.433,30.336ZM34.441,53.125L65.558,53.125C65.37,59.226 64.659,64.809 63.562,69.687C54.57,68.476 45.437,68.476 36.445,69.687C35.343,64.808 34.632,59.226 34.449,53.125L34.441,53.125ZM71.789,46.875C71.609,40.523 70.898,34.598 69.73,29.281C74.078,28.414 78.371,27.257 82.589,25.808C87.046,31.785 89.894,39.015 90.496,46.874L71.789,46.875ZM78.066,20.715C74.801,21.727 71.492,22.559 68.152,23.207C66.699,18.598 64.875,14.621 62.742,11.449C68.543,13.371 73.75,16.582 78.066,20.711L78.066,20.715ZM49.996,9.375C54.254,9.375 58.785,14.937 61.867,24.219C53.988,25.211 46.004,25.211 38.125,24.219C41.207,14.942 45.739,9.379 49.996,9.379L49.996,9.375ZM31.848,23.207C28.508,22.558 25.2,21.726 21.934,20.715C26.251,16.582 31.458,13.375 37.254,11.453C35.121,14.617 33.297,18.601 31.844,23.207L31.848,23.207ZM21.934,79.289C25.196,78.277 28.504,77.449 31.844,76.797C33.294,81.402 35.118,85.383 37.247,88.547C31.454,86.625 26.251,83.418 21.935,79.289L21.934,79.289ZM50,90.625C45.742,90.625 41.211,85.062 38.129,75.785C46.012,74.793 53.996,74.793 61.871,75.785C58.789,85.062 54.258,90.625 50,90.625ZM68.156,76.793C71.496,77.441 74.805,78.269 78.07,79.285C73.754,83.414 68.547,86.621 62.754,88.543C64.883,85.379 66.707,81.398 68.157,76.793L68.156,76.793Z" style="fill:white;fill-rule:nonzero;"/>
        </g>
    </g>
</svg>
