<svg xmlns="http://www.w3.org/2000/svg" xml:space="preserve" fill-rule="evenodd" stroke-linejoin="round" stroke-miterlimit="2" clip-rule="evenodd" viewBox="0 0 15 15"><path fill="none" d="M0 0h14.6v14.6H0z"/><path fill="#fff" fill-rule="nonzero" d="M7.5 0a7.5 7.5 0 1 0 0 15 7.5 7.5 0 0 0 0-15m3.2 10.8L11 8h3q-.2 1.9-1.3 3.3zm-8.4.6Q1.2 9.9 1 8h3q0 1.5.3 2.8zm2-7.2L4 7H1q.2-2 1.3-3.4zm1 .1a16 16 0 0 0 4.4 0L10 7H5q0-1.5.3-2.7M5 8h5q0 1.5-.3 2.7-2.2-.3-4.4 0zm6-1-.3-2.8 2-.6Q13.8 5.1 14 7zm1-4.2-1.6.4-.9-1.9q1.4.5 2.5 1.5M7.5 1q1.1 0 1.9 2.4a15 15 0 0 1-3.8 0Q6.4 1.1 7.5 1m-3 2.2L3 2.8q1-1 2.5-1.5-.6.8-1 2M3 12.2l1.6-.4q.3 1.1.9 1.9-1.4-.5-2.5-1.5M7.5 14q-1.1 0-1.9-2.4a15 15 0 0 1 3.8 0q-.8 2.3-1.9 2.4m3-2.2 1.5.4a7 7 0 0 1-2.5 1.5z"/></svg>