<svg data-name="Calque 1" xmlns="http://www.w3.org/2000/svg" viewBox="0 0 1000 1000">
<path d="M1086.52 512.02c33.24 0 66.4 3.34 98.56 9.92a484 484 0 0 1 174.13 73.3 492 492 0 0 1 132.06 132.06 484 484 0 0 1 73.3 174.13c6.58 32.16 9.92 65.32 9.92 98.56s-3.34 66.4-9.92 98.56a484 484 0 0 1-73.3 174.13 492 492 0 0 1-132.06 132.06 484 484 0 0 1-174.13 73.3c-32.16 6.58-65.32 9.92-98.56 9.92s-66.4-3.34-98.56-9.92a484 484 0 0 1-174.13-73.3 492 492 0 0 1-132.06-132.06 484 484 0 0 1-73.3-174.13c-6.58-32.16-9.92-65.32-9.92-98.56s3.34-66.4 9.92-98.56a484 484 0 0 1 73.3-174.13 492 492 0 0 1 132.06-132.06 484 484 0 0 1 174.13-73.3 493 493 0 0 1 98.56-9.92m0-200c-379.96 0-687.98 308.02-687.98 687.98s308.02 687.98 687.98 687.98S1774.5 1379.96 1774.5 1000s-308.02-687.98-687.98-687.98m-1173.04-800c33.24 0 66.4 3.34 98.56 9.92a484 484 0 0 1 174.13 73.3A492 492 0 0 1 318.23-272.7a484 484 0 0 1 73.3 174.13c6.59 32.17 9.93 65.33 9.93 98.57s-3.34 66.4-9.92 98.56a484 484 0 0 1-73.3 174.13 492 492 0 0 1-132.06 132.06 484 484 0 0 1-174.13 73.3c-32.16 6.58-65.32 9.92-98.56 9.92s-66.4-3.34-98.56-9.92a484 484 0 0 1-174.13-73.3 492 492 0 0 1-132.06-132.06 484 484 0 0 1-73.3-174.13c-6.6-32.16-9.94-65.32-9.94-98.56s3.34-66.4 9.92-98.56a484 484 0 0 1 73.3-174.13 492 492 0 0 1 132.06-132.06 484 484 0 0 1 174.13-73.3 493 493 0 0 1 98.56-9.92m.01-200.01C-466.48-687.98-774.5-379.96-774.5 0s308.02 687.98 687.98 687.98S601.46 379.96 601.46 0 293.44-687.98-86.52-687.98"/></svg>