<?xml version="1.0" encoding="UTF-8" standalone="no"?><!DOCTYPE svg PUBLIC "-//W3C//DTD SVG 1.1//EN" "http://www.w3.org/Graphics/SVG/1.1/DTD/svg11.dtd"><svg width="100%" height="100%" viewBox="0 0 815 812" version="1.1" xmlns="http://www.w3.org/2000/svg" xmlns:xlink="http://www.w3.org/1999/xlink" xml:space="preserve" xmlns:serif="http://www.serif.com/" style="fill-rule:evenodd;clip-rule:evenodd;stroke-linejoin:round;stroke-miterlimit:2;"><g><path d="M73.692,418.1l-73.692,-4.322l1.489,-25.385c0.336,-5.731 0.944,-10.084 1.825,-13.058c1.219,-4.166 3.19,-7.665 5.912,-10.498c3.512,-3.695 7.88,-6.356 13.103,-7.983c5.224,-1.627 11.12,-2.248 17.688,-1.863c5.597,0.328 10.518,1.272 14.764,2.833c4.247,1.56 7.726,3.446 10.438,5.656c2.712,2.21 4.809,4.578 6.292,7.103c1.483,2.525 2.542,5.529 3.178,9.013c0.637,3.484 0.824,7.455 0.563,11.912l-1.56,26.592Zm-8.124,-10.262l0.923,-15.734c0.285,-4.859 0.056,-8.698 -0.687,-11.516c-0.742,-2.817 -1.887,-5.095 -3.432,-6.834c-2.177,-2.448 -5.18,-4.431 -9.008,-5.95c-3.829,-1.52 -8.524,-2.442 -14.087,-2.769c-7.708,-0.452 -13.705,0.466 -17.993,2.754c-4.287,2.287 -7.24,5.199 -8.86,8.736c-1.158,2.555 -1.908,6.731 -2.248,12.528l-0.908,15.483l56.3,3.302Z" style="fill:#fff;fill-rule:nonzero;"/><path d="M44.713,333.373c-11.716,-3.588 -19.925,-9.543 -24.626,-17.864c-4.701,-8.321 -5.528,-17.457 -2.481,-27.407c1.996,-6.516 5.352,-11.913 10.067,-16.191c4.716,-4.279 10.279,-6.937 16.688,-7.976c6.41,-1.039 13.145,-0.477 20.207,1.686c7.158,2.192 13.119,5.598 17.883,10.217c4.765,4.619 7.788,10.021 9.071,16.207c1.283,6.185 0.985,12.344 -0.892,18.474c-2.035,6.645 -5.459,12.091 -10.271,16.34c-4.812,4.249 -10.407,6.871 -16.786,7.867c-6.379,0.995 -12.666,0.544 -18.86,-1.353Zm3.093,-9.585c8.506,2.605 15.907,2.37 22.203,-0.705c6.295,-3.074 10.5,-8.062 12.614,-14.963c2.153,-7.03 1.453,-13.572 -2.099,-19.628c-3.552,-6.056 -9.87,-10.475 -18.954,-13.257c-5.745,-1.759 -11.058,-2.324 -15.937,-1.695c-4.88,0.63 -9.072,2.453 -12.577,5.47c-3.504,3.017 -5.969,6.852 -7.395,11.506c-2.025,6.612 -1.496,12.997 1.586,19.155c3.082,6.157 9.935,10.863 20.559,14.117Z" style="fill:#fff;fill-rule:nonzero;"/><path d="M106.592,262.789l-63.513,-37.621l5.107,-8.621l69.626,-3.822l-49.866,-29.538l4.773,-8.058l63.513,37.621l-5.107,8.622l-69.669,3.796l49.909,29.563l-4.773,8.058Z" style="fill:#fff;fill-rule:nonzero;"/><path d="M142.498,203.421l-34.099,-71.345l7.237,-7.641l74.37,28.829l-7.652,8.079l-22.153,-9.123l-21.227,22.41l10.657,21.26l-7.133,7.531Zm-7.361,-36.309l17.21,-18.17l-20.141,-8.465c-6.124,-2.565 -11.029,-4.806 -14.714,-6.724c2.79,3.937 5.29,8.131 7.5,12.583l10.145,20.776Z" style="fill:#fff;fill-rule:nonzero;"/><path d="M207.972,141.102l-38.276,-52.669l-19.674,14.298l-5.121,-7.047l47.332,-34.397l5.121,7.046l-19.755,14.358l38.275,52.668l-7.902,5.743Z" style="fill:#fff;fill-rule:nonzero;"/><path d="M246.917,114.708l-29.934,-67.478l48.79,-21.644l3.532,7.963l-39.86,17.683l9.168,20.667l37.329,-16.56l3.512,7.917l-37.329,16.559l10.189,22.968l41.425,-18.377l3.533,7.963l-50.355,22.339Z" style="fill:#fff;fill-rule:nonzero;"/><path d="M345.573,5.297l9.574,-1.941l8.473,41.8c1.474,7.271 1.822,13.212 1.044,17.822c-0.778,4.611 -3.042,8.692 -6.792,12.244c-3.75,3.551 -9.112,6.034 -16.087,7.448c-6.778,1.374 -12.558,1.33 -17.342,-0.133c-4.783,-1.462 -8.545,-4.219 -11.284,-8.271c-2.739,-4.051 -4.886,-9.91 -6.44,-17.576l-8.473,-41.799l9.574,-1.941l8.463,41.75c1.274,6.284 2.797,10.797 4.568,13.537c1.772,2.741 4.244,4.629 7.416,5.664c3.173,1.036 6.816,1.136 10.928,0.303c7.041,-1.428 11.735,-4.04 14.082,-7.838c2.347,-3.799 2.6,-10.238 0.759,-19.318l-8.463,-41.751Z" style="fill:#fff;fill-rule:nonzero;"/><path d="M388.98,73.749l3.209,-73.749l32.699,1.423c6.574,0.286 11.542,1.166 14.905,2.639c3.363,1.474 5.995,3.932 7.895,7.375c1.9,3.443 2.761,7.193 2.585,11.251c-0.228,5.232 -2.114,9.569 -5.657,13.01c-3.543,3.441 -8.875,5.494 -15.993,6.158c2.528,1.354 4.437,2.663 5.726,3.929c2.737,2.74 5.294,6.127 7.672,10.162l11.955,20.631l-12.275,-0.535l-9.092,-15.768c-2.658,-4.551 -4.858,-8.04 -6.6,-10.468c-1.743,-2.428 -3.323,-4.143 -4.741,-5.146c-1.418,-1.002 -2.874,-1.721 -4.367,-2.155c-1.096,-0.283 -2.902,-0.48 -5.418,-0.589l-11.318,-0.493l-1.426,32.75l-9.759,-0.425Zm11.552,-40.776l20.978,0.913c4.461,0.194 7.969,-0.115 10.524,-0.928c2.555,-0.813 4.531,-2.206 5.928,-4.178c1.396,-1.972 2.146,-4.148 2.249,-6.53c0.152,-3.487 -0.989,-6.41 -3.423,-8.767c-2.435,-2.357 -6.385,-3.655 -11.852,-3.893l-23.342,-1.016l-1.062,24.399Z" style="fill:#fff;fill-rule:nonzero;"/><path d="M496.467,85.939l25.815,-69.158l26.087,9.737c4.592,1.714 8.017,3.243 10.274,4.588c3.185,1.833 5.629,3.973 7.332,6.418c1.703,2.445 2.72,5.36 3.052,8.745c0.331,3.384 -0.143,6.79 -1.423,10.218c-2.195,5.881 -5.924,10.16 -11.187,12.835c-5.263,2.676 -12.785,2.189 -22.565,-1.462l-17.738,-6.621l-10.495,28.116l-9.152,-3.416Zm22.693,-32.862l17.879,6.674c5.913,2.207 10.522,2.674 13.829,1.4c3.306,-1.274 5.705,-3.909 7.195,-7.903c1.08,-2.893 1.274,-5.643 0.58,-8.249c-0.693,-2.605 -2.112,-4.685 -4.255,-6.237c-1.389,-0.984 -4.159,-2.251 -8.31,-3.801l-17.691,-6.603l-9.227,24.719Z" style="fill:#fff;fill-rule:nonzero;"/><path d="M580.368,80.487c6.748,-10.228 14.776,-16.423 24.086,-18.586c9.309,-2.163 18.307,-0.38 26.993,5.351c5.689,3.752 9.92,8.494 12.694,14.226c2.775,5.731 3.756,11.817 2.945,18.26c-0.812,6.442 -3.251,12.745 -7.318,18.91c-4.122,6.249 -9.071,11.007 -14.846,14.275c-5.776,3.268 -11.812,4.645 -18.108,4.131c-6.296,-0.515 -12.121,-2.537 -17.473,-6.068c-5.8,-3.826 -10.06,-8.647 -12.779,-14.463c-2.718,-5.815 -3.656,-11.923 -2.811,-18.323c0.844,-6.401 3.05,-12.305 6.617,-17.713Zm8.324,5.672c-4.899,7.426 -6.761,14.592 -5.587,21.499c1.173,6.908 4.773,12.349 10.797,16.323c6.137,4.049 12.611,5.223 19.423,3.523c6.812,-1.699 12.833,-6.514 18.065,-14.444c3.309,-5.016 5.349,-9.953 6.122,-14.812c0.772,-4.859 0.206,-9.396 -1.7,-13.609c-1.906,-4.213 -4.89,-7.66 -8.953,-10.34c-5.773,-3.808 -12.047,-5.102 -18.824,-3.882c-6.777,1.22 -13.225,6.467 -19.343,15.742Z" style="fill:#fff;fill-rule:nonzero;"/><path d="M717.735,144.989l6.652,7.154l-31.234,29.042c-5.433,5.051 -10.319,8.449 -14.658,10.191c-4.339,1.742 -9.002,1.941 -13.988,0.596c-4.987,-1.345 -9.903,-4.624 -14.75,-9.836c-4.708,-5.064 -7.687,-10.018 -8.936,-14.861c-1.249,-4.844 -0.861,-9.491 1.166,-13.943c2.026,-4.451 5.903,-9.339 11.632,-14.665l31.234,-29.043l6.652,7.154l-31.198,29.008c-4.695,4.366 -7.75,8.02 -9.163,10.961c-1.413,2.942 -1.734,6.036 -0.961,9.282c0.773,3.247 2.588,6.407 5.445,9.48c4.892,5.261 9.57,7.901 14.035,7.921c4.465,0.02 10.09,-3.125 16.875,-9.434l31.197,-29.007Z" style="fill:#fff;fill-rule:nonzero;"/><path d="M682.05,217.852l64.622,-35.682l15.821,28.652c3.181,5.76 5.018,10.459 5.512,14.098c0.495,3.638 -0.233,7.165 -2.182,10.58c-1.948,3.416 -4.701,6.105 -8.257,8.068c-4.584,2.532 -9.268,3.181 -14.051,1.95c-4.783,-1.232 -9.313,-4.713 -13.589,-10.443c0.162,2.863 0.039,5.174 -0.37,6.934c-0.913,3.764 -2.472,7.711 -4.677,11.843l-11.382,20.952l-5.938,-10.755l8.722,-15.976c2.5,-4.639 4.332,-8.335 5.497,-11.087c1.164,-2.753 1.805,-4.995 1.922,-6.728c0.117,-1.732 -0.028,-3.349 -0.435,-4.85c-0.33,-1.083 -1.103,-2.727 -2.32,-4.931l-5.477,-9.918l-28.696,15.845l-4.722,-8.552Zm40.824,-11.382l10.15,18.381c2.158,3.909 4.25,6.742 6.275,8.5c2.025,1.757 4.243,2.718 6.654,2.883c2.41,0.164 4.659,-0.33 6.745,-1.482c3.057,-1.687 4.957,-4.184 5.701,-7.49c0.743,-3.306 -0.207,-7.354 -2.852,-12.144l-11.294,-20.453l-21.379,11.805Z" style="fill:#fff;fill-rule:nonzero;"/><path d="M762.82,306.337c12.053,-2.206 22.081,-0.697 30.084,4.527c8.003,5.224 12.942,12.955 14.815,23.191c1.227,6.704 0.731,13.039 -1.487,19.008c-2.218,5.969 -5.933,10.889 -11.145,14.761c-5.213,3.871 -11.451,6.472 -18.716,7.802c-7.363,1.347 -14.223,1.067 -20.579,-0.841c-6.355,-1.909 -11.526,-5.314 -15.511,-10.215c-3.986,-4.902 -6.556,-10.506 -7.71,-16.813c-1.251,-6.835 -0.718,-13.246 1.599,-19.233c2.317,-5.987 6.078,-10.89 11.283,-14.709c5.205,-3.819 10.994,-6.312 17.367,-7.478Zm1.665,9.933c-8.751,1.602 -15.213,5.216 -19.388,10.843c-4.174,5.627 -5.612,11.99 -4.313,19.09c1.324,7.231 4.956,12.718 10.896,16.46c5.94,3.742 13.583,4.757 22.928,3.047c5.911,-1.081 10.887,-3.025 14.93,-5.829c4.043,-2.805 6.925,-6.353 8.648,-10.644c1.723,-4.291 2.147,-8.83 1.271,-13.618c-1.245,-6.803 -4.653,-12.228 -10.223,-16.277c-5.57,-4.048 -13.819,-5.072 -24.749,-3.072Z" style="fill:#fff;fill-rule:nonzero;"/><path d="M740.372,397.606l73.689,4.378l-0.594,10.003l-60.156,35.267l57.856,3.438l-0.556,9.349l-73.689,-4.379l0.595,-10.003l60.205,-35.263l-57.906,-3.441l0.556,-9.349Z" style="fill:#fff;fill-rule:nonzero;"/><path d="M733.384,474.705l70.767,21.006l-15.188,51.169l-8.351,-2.479l12.408,-41.804l-21.674,-6.434l-11.621,39.149l-8.302,-2.464l11.62,-39.149l-24.088,-7.15l-12.896,43.445l-8.351,-2.479l15.676,-52.81Z" style="fill:#fff;fill-rule:nonzero;"/><path d="M685.502,587.969l77.229,17.41l-5.896,8.778l-55.215,-13.969c-4.428,-1.114 -8.493,-2.287 -12.194,-3.519c2.707,3.193 5.312,6.54 7.815,10.04l33.403,46.451l-5.558,8.277l-45.17,-65.149l5.586,-8.319Z" style="fill:#fff;fill-rule:nonzero;"/><path d="M682.703,653.418c8.323,8.992 12.425,18.267 12.305,27.823c-0.12,9.557 -3.999,17.87 -11.636,24.939c-5.001,4.629 -10.615,7.607 -16.843,8.934c-6.227,1.327 -12.372,0.828 -18.435,-1.497c-6.063,-2.324 -11.602,-6.197 -16.619,-11.616c-5.085,-5.494 -8.525,-11.435 -10.322,-17.823c-1.796,-6.389 -1.693,-12.579 0.308,-18.571c2.002,-5.992 5.355,-11.166 10.06,-15.521c5.1,-4.72 10.798,-7.707 17.094,-8.96c6.296,-1.253 12.451,-0.707 18.465,1.64c6.015,2.347 11.222,5.897 15.623,10.652Zm-7.493,6.73c-6.043,-6.529 -12.558,-10.047 -19.547,-10.554c-6.988,-0.508 -13.13,1.69 -18.427,6.592c-5.395,4.994 -8.08,11.001 -8.054,18.022c0.025,7.02 3.265,14.017 9.718,20.989c4.082,4.409 8.39,7.569 12.925,9.478c4.534,1.91 9.075,2.442 13.621,1.596c4.546,-0.846 8.605,-2.922 12.177,-6.229c5.075,-4.697 7.829,-10.482 8.261,-17.354c0.431,-6.872 -3.127,-14.386 -10.674,-22.54Z" style="fill:#fff;fill-rule:nonzero;"/><path d="M591.609,683.228l40.111,61.971l-8.201,5.308l-40.111,-61.971l8.201,-5.308Z" style="fill:#fff;fill-rule:nonzero;"/><path d="M528.736,744.467l-9.945,1.62c-1.311,-8.176 -0.363,-15.255 2.845,-21.236c3.207,-5.981 8.337,-10.499 15.391,-13.556c7.3,-3.163 13.881,-4.249 19.743,-3.259c5.862,0.991 11.208,3.787 16.037,8.39c4.83,4.602 8.646,10.137 11.449,16.606c3.056,7.054 4.375,13.79 3.955,20.21c-0.419,6.419 -2.526,12.07 -6.319,16.951c-3.794,4.882 -8.678,8.617 -14.654,11.206c-6.776,2.937 -13.222,3.681 -19.337,2.233c-6.115,-1.448 -11.436,-4.905 -15.963,-10.37l7.924,-5.903c3.706,4.248 7.541,6.849 11.503,7.803c3.962,0.953 8.207,0.449 12.735,-1.512c5.205,-2.256 9.016,-5.389 11.43,-9.399c2.415,-4.009 3.42,-8.423 3.016,-13.242c-0.405,-4.818 -1.575,-9.461 -3.511,-13.927c-2.495,-5.76 -5.514,-10.425 -9.054,-13.994c-3.541,-3.57 -7.543,-5.65 -12.006,-6.24c-4.463,-0.591 -8.758,0.008 -12.886,1.797c-5.02,2.175 -8.644,5.465 -10.87,9.868c-2.226,4.404 -2.72,9.722 -1.483,15.954Z" style="fill:#fff;fill-rule:nonzero;"/><path d="M494.92,728.442l13.576,72.559l-52.464,9.817l-1.602,-8.563l42.862,-8.02l-4.158,-22.223l-40.14,7.511l-1.593,-8.514l40.14,-7.51l-4.621,-24.698l-44.545,8.335l-1.602,-8.563l54.147,-10.131Z" style="fill:#fff;fill-rule:nonzero;"/><path d="M407.115,740.971l-35.864,70.474l-10.467,-1.093l-22.381,-76.558l11.068,1.156l6.242,23.131l30.7,3.206l10.385,-21.394l10.317,1.078Zm-24.333,27.936l-24.891,-2.6l5.539,21.134c1.692,6.421 2.898,11.677 3.618,15.769c1.427,-4.61 3.234,-9.147 5.421,-13.61l10.313,-20.693Z" style="fill:#fff;fill-rule:nonzero;"/><path d="M328.229,730.928l-23.73,69.901l-9.488,-3.221l-18.084,-67.345l-18.631,54.881l-8.869,-3.011l23.73,-69.901l9.488,3.221l18.068,67.393l18.647,-54.929l8.869,3.011Z" style="fill:#fff;fill-rule:nonzero;"/><path d="M254.943,702.178l-34.796,65.104l-8.615,-4.605l34.796,-65.103l8.615,4.604Z" style="fill:#fff;fill-rule:nonzero;"/><path d="M228.511,689.132l-45.782,57.907l-11.534,-9.119l18.709,-51.838c1.755,-4.817 3.092,-8.403 4.012,-10.757c-2.324,1.586 -5.797,3.868 -10.42,6.847l-45.718,29.328l-10.31,-8.15l45.782,-57.908l7.386,5.84l-38.318,48.467l55.146,-35.163l6.912,5.465l-22.226,62.537l38.974,-49.296l7.387,5.84Z" style="fill:#fff;fill-rule:nonzero;"/><path d="M165.848,637.888l-75.683,22.914l-6.458,-8.309l39.747,-69.154l6.829,8.787l-12.369,20.518l18.941,24.372l22.628,-7.318l6.365,8.19Zm-37.005,1.783l-15.357,-19.76l-11.415,18.629c-3.461,5.666 -6.419,10.175 -8.873,13.528c4.314,-2.162 8.839,-3.999 13.574,-5.511l22.071,-6.886Z" style="fill:#fff;fill-rule:nonzero;"/><path d="M119.071,574.102l-66.288,32.482l-4.298,-8.772l58.465,-28.649l-15.997,-32.647l7.822,-3.833l20.296,41.419Z" style="fill:#fff;fill-rule:nonzero;"/><path d="M65.672,502.561l-8.866,2.114l-6.458,-27.086l8.866,-2.114l6.458,27.086Z" style="fill:#fff;fill-rule:nonzero;"/></g><path d="M501.039,381.66c0.786,-0.212 1.596,-0.437 2.257,-0.593c-0.443,0.137 -1.229,0.343 -2.257,0.593Z" style="fill:#fff;"/><g><circle cx="407.07" cy="407.009" r="242.063" style="fill:#fff;"/><path d="M480.106,316.722c-7.929,-18.948 -17.021,-29.858 -33.712,-37.584c-10.156,-4.702 -8.993,-11.804 -7.967,-18.07c0.66,-4.032 1.264,-7.718 -1.241,-10.196c-7.502,-7.415 -15.625,0.447 -18.397,4.737c-6.068,9.066 -19.153,7.241 -20.84,-3.475c-8.801,-25.78 -27.547,-0.757 -35.98,11.454c-31.424,14.366 -75.468,38.38 -97.413,69.848c-3.761,5.397 -5.389,11.998 -4.807,18.54c6.281,-9.143 22.351,-27.198 27.954,-31.566c0.515,-0.404 1.098,-0.862 1.741,-1.368l0.001,-0.001c16.33,-12.854 71.657,-56.403 60.435,-14.15c-33.526,77.397 -20.635,94.082 -8.948,109.211c7.454,9.65 14.419,18.666 8.538,42.399c-46.485,-33.662 -50.922,-85.59 -34.463,-129.036c-52.897,35.264 -26.449,119.418 24.044,143.463c-9.618,27.249 -29.655,5.61 -39.272,-10.42c-0,0 1.603,20.037 30.378,48.462c6.229,6.511 6.22,16.669 6.211,28.304c-0.01,10.6 -0.02,22.426 4.684,33.837c0,-0 18.107,-45.621 21.828,-82.448c2.681,-26.524 13.203,-37.36 27.427,-52.007c6.659,-6.858 14.13,-14.552 21.988,-25.082c14.223,-19.062 25.901,-12.293 37.902,-5.337c8.788,5.094 17.749,10.288 28.009,5.512c11.27,-5.426 14.255,-13.548 17.442,-22.221c2.525,-6.871 5.178,-14.088 12.179,-20.585c13.678,-16.223 -1.889,-28.776 -14.761,-39.156c-5.919,-4.772 -11.268,-9.086 -12.941,-13.085l-0.019,0.02Zm0.387,34.089c22.236,25.858 4.498,48.96 -20.025,33.41c6.281,-0.272 13.047,-1.883 15.393,-5.048c-17.902,-2.249 -30.461,-7.221 -42.741,-12.083c-7.747,-3.067 -15.383,-6.09 -24.179,-8.358c-13.837,-3.365 -8.009,11.215 -2.916,23.953c2.134,5.34 4.14,10.357 4.512,13.592c-32.93,-7.839 -26.154,-32.88 -19.587,-57.15c3.534,-13.058 7.007,-25.894 4.203,-35.706c-2.463,2.523 -4.73,4.519 -6.793,6.334l-0,0l-0,0.001c-5.252,4.622 -9.177,8.078 -11.64,16.105c-2.99,9.743 -3.363,29.353 -3.729,48.627c-0.356,18.781 -0.707,37.245 -3.468,45.947c-28.632,-34.09 -10.287,-90.357 -1.602,-113.265c1.807,-5.517 8.848,-9.255 15.518,-12.796c6.564,-3.485 12.769,-6.78 13.27,-11.392c-20.607,5.261 -22.817,-22.772 -9.771,-31.178c1.508,1.92 3.322,6.585 5.15,11.284c3.974,10.219 8.01,20.597 9.099,3.257c10.662,0.563 19.87,5.998 30.532,14.035c-0.982,2.559 -1.728,4.482 -2.493,6.454l-0.001,0.005l-0.014,0.036c-0.663,1.71 -1.341,3.461 -2.203,5.697c5.677,-2.652 8.794,-5.342 10.635,-6.932c1.137,-0.98 1.787,-1.542 2.253,-1.417c0.625,0.168 0.919,1.568 1.607,4.845c0.471,2.241 1.126,5.359 2.196,9.561l0.523,-1.406l-0,-0c0.723,-1.944 1.524,-4.101 2.676,-7.233l1.006,0.773c9.753,7.495 16.536,12.707 19.873,23.765c2.9,9.639 11.199,16.327 19.481,23.002c5.779,4.658 11.55,9.309 15.471,14.95c2.423,3.475 -0.291,5.378 -5.059,4.019c-1.742,-0.494 -3.617,-1.484 -5.57,-2.515c-3.722,-1.966 -7.721,-4.077 -11.587,-3.173l-0.02,0Zm-206.141,86.425c-5.477,-13.923 -10.991,-27.939 -11.581,-43.209c-11.712,22.801 -0.464,46.6 10.37,69.523c4.589,9.708 9.104,19.261 11.768,28.513c3.261,-19.701 -3.619,-37.189 -10.557,-54.827Zm144.611,-131.173c2.249,3.573 3.855,7.671 5.439,11.713c4.287,10.937 8.415,21.471 24.705,20.125c-8.866,17.9 -19.995,5.154 -29.3,-5.502l-0.001,-0c-0.886,-1.016 -1.757,-2.013 -2.607,-2.962c-0.074,8.939 -0.13,16.308 -0.186,23.57l-0,0.021l-0.008,1.044c-24.445,-4.291 -9.732,-35.74 1.958,-48.009Zm41.722,22.074c-10.099,-31.644 -30.862,-20.559 -30.862,-20.559c0,-0 2.462,8.58 12.698,11.687c10.235,3.106 18.164,8.872 18.164,8.872Zm16.592,41.195c-10.313,3.184 -20.18,0.66 -29.815,-4.95c7.861,-2.184 15.371,0.304 22.884,2.793c2.307,0.764 4.614,1.528 6.931,2.157Zm-20.17,-12.255c6.436,5.028 13.222,7.454 20.685,5.086c-1.596,-0.603 -3.174,-1.319 -4.753,-2.036c-5.131,-2.328 -10.253,-4.654 -15.932,-3.05Z"/><path d="M406.291,475.767c3.921,3.819 8.717,5.729 14.381,5.729c5.663,-0 10.459,-1.91 14.323,-5.729c3.922,-3.87 5.885,-8.621 5.885,-14.236c0,-5.614 -1.963,-10.36 -5.885,-14.179c-3.864,-3.87 -8.66,-5.779 -14.323,-5.779c-5.664,-0 -10.46,1.909 -14.381,5.779c-3.871,3.813 -5.828,8.558 -5.828,14.179c-0,5.621 1.963,10.366 5.828,14.236Zm21.026,-7.581c-1.742,1.745 -3.978,2.62 -6.645,2.62c-2.674,0 -4.904,-0.875 -6.703,-2.62c-1.742,-1.802 -2.616,-3.984 -2.616,-6.655c-0,-2.671 0.874,-4.853 2.616,-6.598c1.799,-1.795 4.035,-2.671 6.703,-2.671c2.667,0 4.903,0.87 6.645,2.671c1.793,1.745 2.667,3.927 2.667,6.598c0,2.671 -0.868,4.853 -2.667,6.655Zm48.154,-25.744l-10.896,0l-0,17.453l-11.986,-17.453l-8.718,0l0,38.185l10.897,0l-0,-17.452l11.986,17.452l8.717,0l0,-38.185Zm15.247,28.149l14.159,-0l-0,10.036l-25.055,0l-0,-38.185l24.783,0l-0,9.929l-13.887,-0l0,4.142l12.525,0l-0,9.821l-12.525,0l0,4.257Zm-91.619,16.151l12.145,38.185l12.208,-0l12.144,-38.185l-11.98,-0l-6.265,24.272l-6.266,-24.272l-11.986,-0Zm54.798,39.055c-5.663,0 -10.459,-1.909 -14.381,-5.728c-3.864,-3.87 -5.828,-8.616 -5.828,-14.237c-0,-5.62 1.958,-10.366 5.828,-14.179c3.922,-3.869 8.718,-5.779 14.381,-5.779c5.664,0 10.459,1.91 14.324,5.779c3.921,3.82 5.885,8.565 5.885,14.179c0,5.615 -1.964,10.367 -5.885,14.237c-3.865,3.819 -8.66,5.728 -14.324,5.728Zm0,-10.69c2.667,0 4.904,-0.875 6.646,-2.62c1.799,-1.801 2.667,-3.984 2.667,-6.655c-0,-2.67 -0.874,-4.853 -2.667,-6.597c-1.742,-1.802 -3.979,-2.671 -6.646,-2.671c-2.667,-0 -4.903,0.875 -6.702,2.671c-1.743,1.744 -2.617,3.927 -2.617,6.597c0,2.671 0.874,4.854 2.617,6.655c1.799,1.745 4.029,2.62 6.702,2.62Zm34.103,-28.365l-10.897,-0l0,38.185l10.897,-0l-0,-38.185Zm8.653,33.333c-3.756,-3.819 -5.664,-8.564 -5.664,-14.236c0,-5.672 1.908,-10.417 5.664,-14.236c3.757,-3.819 8.553,-5.729 14.273,-5.729c7.026,0 13.399,3.597 16.725,9.275l-9.477,5.456c-1.255,-2.455 -4.03,-4.035 -7.248,-4.035c-2.667,0 -4.846,0.876 -6.538,2.62c-1.685,1.745 -2.508,3.984 -2.508,6.655c-0,2.671 0.817,4.911 2.508,6.655c1.692,1.745 3.865,2.62 6.538,2.62c3.269,0 5.993,-1.529 7.248,-4.092l9.477,5.456c-3.32,5.729 -9.693,9.326 -16.725,9.326c-5.72,0 -10.51,-1.91 -14.273,-5.729l0,-0.006Zm57.69,-5.185l-14.16,0l-0,-4.257l12.525,0l-0,-9.82l-12.525,-0l-0,-4.143l13.888,0l-0,-9.928l-24.783,-0l0,38.185l25.055,-0l-0,-10.037Z"/></g><g><path d="M501.039,381.66c1.028,-0.25 1.814,-0.456 2.257,-0.593c-0.661,0.156 -1.471,0.381 -2.257,0.593Z" style="fill:#fff;fill-rule:nonzero;"/></g></svg>