<svg viewBox="0 0 2414 201" xmlns="http://www.w3.org/2000/svg" xml:space="preserve" fill-rule="evenodd" clip-rule="evenodd" stroke-linejoin="round" stroke-miterlimit="2">
    <path d="M70.4 200.4a90 90 0 0 1-36.4-6.8 57 57 0 0 1-24.1-19A55 55 0 0 1 0 146.3h25.4q1 11 7.4 18 6.4 7.2 16.4 10.6a65 65 0 0 0 21.2 3.5q13.2 0 23.7-4.3 10.5-4.4 16.6-12.2 6-7.8 6.1-18 0-9.5-5.3-15.3t-14-9.6-19.1-6.7l-23.5-6.6a86 86 0 0 1-36.4-19A42 42 0 0 1 5.5 55q0-16.4 8.8-28.7a58 58 0 0 1 24-19Q53.3.4 72 .4q19.2 0 34 6.8a58 58 0 0 1 23.2 18.4 46 46 0 0 1 9 26.4h-24.1a29 29 0 0 0-13.6-22 52 52 0 0 0-29.1-7.7q-12.6 0-22 4a35 35 0 0 0-14.6 11.3 27 27 0 0 0-5.2 16.2q0 10.1 6.3 16.3t15 9.7 15.6 5.4L86 90.5q7.8 2.1 17.3 5.7a83 83 0 0 1 18 9.7q8.7 6 14.2 15.4a44 44 0 0 1 5.5 22.8q0 16-8.3 28.7a56 56 0 0 1-24 20.2 89 89 0 0 1-38.2 7.4m96.9-175.5V3h146.7v21.9h-60.8V197h-24.8V25zm258.8 175.2a85 85 0 0 1-40-9 66 66 0 0 1-36-60.1V3H375v126q0 14 6.2 24.8 6.2 11 17.6 17.2a56 56 0 0 0 27.4 6.2 56 56 0 0 0 27.3-6.2 44 44 0 0 0 17.5-17.2q6-10.8 6-24.8V3h24.8v128q0 20-9.4 35.5a66 66 0 0 1-26.3 24.6q-17 9-40 9m183.1-3.1h-46.8v-21.9h45.3q23.7 0 39.2-9a56 56 0 0 0 23.3-26 97 97 0 0 0 7.7-40.5 96 96 0 0 0-7.7-40 56 56 0 0 0-22.6-25.7q-15-9-37.6-9h-48.7v-22h50.4q28.5 0 48.5 11.7a77 77 0 0 1 30.9 33.3 116 116 0 0 1 10.7 51.7q0 30.3-10.8 52.2a77 77 0 0 1-31.5 33.5 101 101 0 0 1-50.3 11.7M573.4 3v194h-24.7V3zm167.7 0h24.7v194h-24.7zm150.3 196.6q-25 0-44.3-12a83 83 0 0 1-30.7-34.4 117 117 0 0 1-11.2-53q0-31 11.2-53.3a84 84 0 0 1 30.7-34.4Q866.6.5 891.4.4t44.3 12.1 30.5 34.4a118 118 0 0 1 11.1 53.2q0 30.8-11 53a83 83 0 0 1-30.6 34.5q-19.5 12-44.3 12m0-23A58 58 0 0 0 945 142a96 96 0 0 0 8.3-41.9q0-25-8.3-42-8.3-17.2-22.3-26a58 58 0 0 0-31.3-8.8 58 58 0 0 0-53.8 34.8 96 96 0 0 0-8.3 42q0 24.8 8.3 41.8t22.3 26a58 58 0 0 0 31.5 8.8m200.3 20.3V3h24.7v83.8h101.8V3h24.8v194h-24.8v-88.3h-101.8V197zm181.5 0 70.4-194h28.7l71.3 194h-26l-41.2-115a815 815 0 0 1-8.8-26.6q-5-16-12.1-40.7h4.7a1342 1342 0 0 1-20.7 67.3l-40 115.1zm35.4-54.2v-21.6h99.6v21.6zm269.4 49.9q-15.8 7-34.6 7-24.9 0-44.4-12.1a83 83 0 0 1-30.6-34.4 117 117 0 0 1-11.2-53q0-31 11.2-53.3a84 84 0 0 1 30.6-34.4q19.5-12 44.4-12.1t44.2 12.1q19.4 12.1 30.6 34.4a118 118 0 0 1 11.1 53.2q0 30.8-11.1 53a85 85 0 0 1-22.7 29l13.3 17.6H1583zm3.3-29.7a64 64 0 0 0 15.6-21 96 96 0 0 0 8.3-41.9q0-25-8.3-42-8.3-17.2-22.2-26a58 58 0 0 0-31.3-8.8 58 58 0 0 0-53.9 34.8 96 96 0 0 0-8.3 42q0 24.8 8.3 41.8t22.3 26a58 58 0 0 0 31.6 8.8q10.5 0 20-3.3l-28.1-37h25.8zm163.2 37.1a85 85 0 0 1-40-9 66 66 0 0 1-35.9-60.1V3h24.8v126q0 14 6.1 24.8 6.2 11 17.7 17.2a56 56 0 0 0 27.3 6.2 56 56 0 0 0 27.3-6.2 44 44 0 0 0 17.5-17.2q6.1-10.8 6.1-24.8V3h24.8v128q0 20-9.4 35.5a66 66 0 0 1-26.4 24.6q-17 9-39.9 9M1867.1 3h24.7v194h-24.7zm71.6 194V3h29.1l79 124 7.5 12.5q4.4 7.5 9.6 17t10 20.3h-3.5a402 402 0 0 1-2.3-40.2l-.1-14.6V3h24.7v194h-29.4L1993 86.6a939 939 0 0 1-20.9-35.1L1956.6 24h4.6l2 48 .3 14.3V197zm319.1-96.9q0-15.6 7.6-28.4A57 57 0 0 1 2314 44a54 54 0 0 1 43.8 21.5 48 48 0 0 1 9.3 22.5h-23a25 25 0 0 0-10.5-15.9 33 33 0 0 0-19.6-6.2q-9.4 0-17.2 4.6t-12.5 12.4a33 33 0 0 0-4.7 17.3q0 9.4 4.7 17.2t12.5 12.3 17.2 4.6q10.9 0 18.5-6.1 7.6-6.3 9.6-16h22.9a50.5 50.5 0 0 1-51 44.3 54 54 0 0 1-28.4-7.6 57 57 0 0 1-20.3-20.4q-7.6-12.8-7.6-28.3M2313 200a98 98 0 0 1-70.7-29.3A98 98 0 0 1 2213 100a98 98 0 0 1 29.3-70.7q13.8-13.8 32-21.6 18-7.7 38.7-7.7a98 98 0 0 1 70.7 29.3q13.8 13.8 21.6 31.9 7.7 18 7.7 38.8a98 98 0 0 1-29.3 70.7A98 98 0 0 1 2313 200m0-22.7a76 76 0 0 0 54.7-22.6 78 78 0 0 0 22.7-54.7 76 76 0 0 0-22.7-54.7 78 78 0 0 0-54.7-22.6 76 76 0 0 0-54.7 22.6 78 78 0 0 0-22.6 54.7 76 76 0 0 0 22.6 54.7 78 78 0 0 0 54.7 22.6"/>
</svg>