<?xml version="1.0" encoding="UTF-8" standalone="no"?><!DOCTYPE svg PUBLIC "-//W3C//DTD SVG 1.1//EN" "http://www.w3.org/Graphics/SVG/1.1/DTD/svg11.dtd"><svg width="100%" height="100%" viewBox="0 0 815 812" version="1.1" xmlns="http://www.w3.org/2000/svg" xmlns:xlink="http://www.w3.org/1999/xlink" xml:space="preserve" xmlns:serif="http://www.serif.com/" style="fill-rule:evenodd;clip-rule:evenodd;stroke-linejoin:round;stroke-miterlimit:2;"><g><path d="M73.726,415.81l-73.726,-3.695l2.671,-53.308l8.701,0.436l-2.183,43.552l22.581,1.131l2.044,-40.786l8.65,0.434l-2.044,40.786l25.095,1.257l2.268,-45.262l8.701,0.436l-2.758,55.019Z" style="fill:#fff;fill-rule:nonzero;"/><path d="M78.432,347.419l-71.305,-19.104l2.594,-9.679l66.017,-22.453l-55.984,-14.999l2.424,-9.046l71.305,19.103l-2.594,9.679l-66.065,22.44l56.031,15.012l-2.423,9.047Z" style="fill:#fff;fill-rule:nonzero;"/><path d="M90.188,231.546l-7.629,-4.099l14.757,-27.569l24.129,12.966c1.099,6.04 1.291,11.764 0.576,17.172c-0.715,5.409 -2.343,10.479 -4.886,15.21c-3.432,6.387 -7.918,11.455 -13.458,15.205c-5.539,3.749 -11.612,5.564 -18.217,5.445c-6.605,-0.119 -13.101,-1.895 -19.488,-5.327c-6.328,-3.401 -11.524,-7.898 -15.587,-13.492c-4.063,-5.594 -6.091,-11.59 -6.083,-17.988c0.009,-6.398 1.753,-12.835 5.232,-19.311c2.527,-4.702 5.572,-8.543 9.137,-11.525c3.565,-2.981 7.287,-4.82 11.168,-5.517c3.88,-0.697 8.311,-0.431 13.291,0.797l-2.042,8.906c-3.836,-0.804 -7.09,-0.99 -9.761,-0.558c-2.671,0.432 -5.299,1.688 -7.883,3.767c-2.585,2.079 -4.759,4.76 -6.523,8.042c-2.113,3.933 -3.342,7.656 -3.685,11.168c-0.344,3.511 -0.013,6.671 0.994,9.48c1.006,2.808 2.415,5.327 4.227,7.559c3.131,3.816 7.048,6.988 11.75,9.515c5.796,3.114 11.181,4.722 16.157,4.823c4.976,0.102 9.435,-1.246 13.378,-4.044c3.942,-2.798 7.065,-6.34 9.369,-10.628c2.002,-3.726 3.239,-7.749 3.712,-12.068c0.473,-4.319 0.388,-7.832 -0.253,-10.539l-12.109,-6.507l-10.273,19.117Z" style="fill:#fff;fill-rule:nonzero;"/><path d="M134.227,212.222l-36.967,-69.903l6.921,-7.928l75.479,25.786l-7.318,8.384l-22.505,-8.217l-20.3,23.253l11.511,20.81l-6.821,7.815Zm-8.829,-35.981l16.458,-18.853l-20.467,-7.641c-6.224,-2.314 -11.216,-4.354 -14.976,-6.122c2.948,3.821 5.616,7.911 8.006,12.269l10.979,20.347Z" style="fill:#fff;fill-rule:nonzero;"/><path d="M196.706,111.197l-5.099,-7l25.244,-18.453l16.13,22.14c-1.627,5.92 -3.934,11.162 -6.922,15.727c-2.987,4.564 -6.652,8.428 -10.993,11.591c-5.861,4.269 -12.1,6.893 -18.717,7.872c-6.618,0.979 -12.877,-0.016 -18.778,-2.985c-5.901,-2.97 -10.986,-7.385 -15.256,-13.245c-4.23,-5.807 -6.964,-12.111 -8.202,-18.913c-1.238,-6.803 -0.468,-13.085 2.312,-18.848c2.779,-5.762 7.14,-10.808 13.082,-15.137c4.314,-3.143 8.723,-5.286 13.228,-6.428c4.505,-1.143 8.656,-1.187 12.456,-0.134c3.799,1.053 7.677,3.212 11.633,6.477l-5.699,7.142c-3.109,-2.387 -5.961,-3.964 -8.556,-4.732c-2.594,-0.768 -5.507,-0.775 -8.737,-0.021c-3.23,0.754 -6.351,2.228 -9.363,4.422c-3.608,2.629 -6.328,5.452 -8.16,8.468c-1.831,3.016 -2.902,6.008 -3.211,8.975c-0.31,2.967 -0.132,5.848 0.534,8.644c1.169,4.797 3.325,9.352 6.467,13.666c3.875,5.318 8.032,9.101 12.473,11.348c4.44,2.248 9.043,2.965 13.808,2.152c4.765,-0.814 9.115,-2.654 13.049,-5.52c3.419,-2.49 6.277,-5.579 8.575,-9.267c2.297,-3.688 3.743,-6.891 4.338,-9.609l-8.094,-11.111l-17.542,12.779Z" style="fill:#fff;fill-rule:nonzero;"/><path d="M252.35,109.55l-28.627,-68.042l49.198,-20.699l3.378,8.029l-40.194,16.911l8.768,20.84l37.641,-15.837l3.359,7.983l-37.641,15.837l9.744,23.16l41.772,-17.574l3.378,8.029l-50.776,21.363Zm-11.82,-80.03l0.706,-15.593l10.953,-4.609l-4.743,17.292l-6.916,2.91Z" style="fill:#fff;fill-rule:nonzero;"/><path d="M344.12,77.53l-7.786,-73.407l27.69,-2.937c4.874,-0.517 8.621,-0.678 11.241,-0.484c3.669,0.219 6.811,1.042 9.427,2.469c2.616,1.428 4.828,3.581 6.635,6.461c1.808,2.881 2.905,6.14 3.291,9.779c0.662,6.242 -0.764,11.736 -4.278,16.48c-3.514,4.744 -10.462,7.667 -20.844,8.768l-18.827,1.997l3.165,29.844l-9.714,1.03Zm5.63,-39.537l18.978,-2.012c6.276,-0.666 10.608,-2.307 12.997,-4.924c2.39,-2.616 3.36,-6.044 2.91,-10.284c-0.326,-3.071 -1.381,-5.617 -3.165,-7.639c-1.784,-2.022 -3.982,-3.249 -6.593,-3.681c-1.682,-0.26 -4.726,-0.157 -9.133,0.31l-18.777,1.992l2.783,26.238Z" style="fill:#fff;fill-rule:nonzero;"/><path d="M414.022,35.132c1.413,-12.171 5.788,-21.32 13.123,-27.447c7.335,-6.127 16.171,-8.59 26.508,-7.39c6.769,0.786 12.684,3.112 17.744,6.977c5.059,3.866 8.679,8.857 10.858,14.973c2.179,6.117 2.843,12.843 1.991,20.179c-0.863,7.436 -3.136,13.914 -6.819,19.435c-3.682,5.52 -8.45,9.469 -14.302,11.848c-5.853,2.379 -11.963,3.199 -18.332,2.459c-6.903,-0.801 -12.878,-3.185 -17.926,-7.15c-5.048,-3.966 -8.638,-8.996 -10.769,-15.09c-2.131,-6.094 -2.823,-12.359 -2.076,-18.794Zm9.986,1.311c-1.026,8.837 0.542,16.074 4.703,21.71c4.161,5.637 9.827,8.872 16.996,9.705c7.302,0.848 13.611,-1.022 18.926,-5.609c5.314,-4.588 8.52,-11.6 9.615,-21.036c0.693,-5.969 0.29,-11.297 -1.211,-15.982c-1.5,-4.686 -4.051,-8.48 -7.651,-11.382c-3.6,-2.902 -7.817,-4.634 -12.653,-5.195c-6.869,-0.798 -13.053,0.875 -18.553,5.018c-5.499,4.144 -8.89,11.734 -10.172,22.771Z" style="fill:#fff;fill-rule:nonzero;"/><path d="M563.123,29.806l9.183,3.333l-14.555,40.09c-2.532,6.973 -5.332,12.225 -8.399,15.754c-3.067,3.529 -7.126,5.832 -12.177,6.909c-5.052,1.076 -10.922,0.4 -17.612,-2.029c-6.5,-2.36 -11.41,-5.41 -14.73,-9.151c-3.32,-3.741 -5.093,-8.055 -5.32,-12.94c-0.226,-4.886 0.996,-11.005 3.665,-18.357l14.555,-40.089l9.182,3.334l-14.538,40.042c-2.188,6.027 -3.24,10.671 -3.157,13.934c0.084,3.262 1.209,6.162 3.377,8.699c2.169,2.537 5.225,4.521 9.169,5.953c6.753,2.452 12.12,2.669 16.103,0.65c3.982,-2.018 7.555,-7.381 10.717,-16.09l14.537,-40.042Z" style="fill:#fff;fill-rule:nonzero;"/><path d="M562.218,109.654l40.558,-61.679l27.347,17.983c5.498,3.615 9.313,6.917 11.445,9.906c2.132,2.989 3.132,6.449 2.999,10.379c-0.134,3.93 -1.316,7.591 -3.548,10.985c-2.877,4.376 -6.719,7.133 -11.526,8.271c-4.806,1.139 -10.436,0.169 -16.889,-2.91c1.477,2.458 2.445,4.561 2.903,6.309c0.946,3.755 1.405,7.975 1.379,12.658l-0.31,23.842l-10.266,-6.75l0.276,-18.2c0.05,-5.27 -0.05,-9.394 -0.302,-12.372c-0.251,-2.978 -0.729,-5.26 -1.433,-6.848c-0.703,-1.588 -1.585,-2.951 -2.644,-4.089c-0.797,-0.805 -2.247,-1.899 -4.35,-3.283l-9.467,-6.225l-18.01,27.39l-8.162,-5.367Zm30.82,-29.091l17.544,11.537c3.731,2.453 6.902,3.985 9.512,4.597c2.611,0.612 5.022,0.429 7.231,-0.548c2.21,-0.978 3.97,-2.462 5.279,-4.454c1.918,-2.917 2.437,-6.011 1.555,-9.283c-0.882,-3.272 -3.609,-6.411 -8.181,-9.417l-19.522,-12.837l-13.418,20.405Z" style="fill:#fff;fill-rule:nonzero;"/><path d="M655.336,184.457l49.297,-42.53l-15.886,-18.415l6.595,-5.69l38.221,44.303l-6.596,5.69l-15.953,-18.491l-49.297,42.529l-6.381,-7.396Z" style="fill:#fff;fill-rule:nonzero;"/><path d="M683.449,218.903l64.468,-35.96l26.001,46.614l-7.608,4.244l-21.242,-38.083l-19.745,11.013l19.893,35.665l-7.564,4.219l-19.893,-35.665l-21.944,12.24l22.076,39.578l-7.607,4.244l-26.835,-48.109Z" style="fill:#fff;fill-rule:nonzero;"/><path d="M713.129,271.87l78.927,4.843l3.164,10.037l-61.319,51.009l-3.346,-10.613l18.734,-14.934l-9.281,-29.439l-23.76,-1.01l-3.119,-9.893Zm35.315,11.2l7.524,23.868l17.182,-13.494c5.216,-4.109 9.558,-7.308 13.024,-9.597c-4.796,0.526 -9.677,0.675 -14.642,0.445l-23.088,-1.222Z" style="fill:#fff;fill-rule:nonzero;"/><path d="M735.484,345.38l73.616,-5.476l1.09,14.663l-50.827,21.302c-4.735,1.968 -8.28,3.41 -10.635,4.326c2.74,0.637 6.771,1.65 12.091,3.039l52.531,13.815l0.975,13.107l-73.616,5.475l-0.698,-9.39l61.614,-4.583l-63.205,-16.809l-0.654,-8.787l61.085,-25.953l-62.669,4.661l-0.698,-9.39Z" style="fill:#fff;fill-rule:nonzero;"/><path d="M735.231,460.548l71.632,17.834l-12.031,48.324l-8.453,-2.104l9.671,-38.846l-22.184,-5.523l-8.369,33.618l-8.453,-2.105l8.369,-33.617l-32.542,-8.102l2.36,-9.479Z" style="fill:#fff;fill-rule:nonzero;"/><path d="M753.167,534.242c11.013,5.369 18.194,12.53 21.542,21.482c3.348,8.952 2.742,18.105 -1.818,27.459c-2.987,6.125 -7.142,10.934 -12.467,14.425c-5.324,3.492 -11.233,5.252 -17.726,5.279c-6.493,0.028 -13.059,-1.576 -19.697,-4.813c-6.729,-3.28 -12.087,-7.572 -16.074,-12.877c-3.987,-5.305 -6.132,-11.112 -6.436,-17.422c-0.303,-6.31 0.95,-12.347 3.759,-18.111c3.045,-6.246 7.275,-11.093 12.691,-14.54c5.415,-3.447 11.35,-5.166 17.806,-5.156c6.456,0.01 12.596,1.435 18.42,4.274Zm-4.549,8.986c-7.997,-3.898 -15.344,-4.819 -22.041,-2.762c-6.698,2.056 -11.629,6.328 -14.791,12.816c-3.222,6.608 -3.55,13.18 -0.984,19.715c2.565,6.535 8.117,11.884 16.657,16.047c5.401,2.633 10.561,4.019 15.479,4.157c4.918,0.138 9.343,-1.01 13.275,-3.444c3.932,-2.434 6.964,-5.839 9.097,-10.214c3.03,-6.216 3.503,-12.605 1.417,-19.168c-2.085,-6.562 -8.121,-12.278 -18.109,-17.147Z" style="fill:#fff;fill-rule:nonzero;"/><path d="M682.455,592.866l56.688,47.283l-20.965,25.134c-4.214,5.053 -7.927,8.469 -11.138,10.249c-3.212,1.781 -6.762,2.382 -10.652,1.804c-3.89,-0.578 -7.394,-2.167 -10.513,-4.769c-4.022,-3.354 -6.326,-7.484 -6.912,-12.388c-0.587,-4.905 1.014,-10.388 4.804,-16.451c-2.61,1.189 -4.809,1.913 -6.597,2.17c-3.838,0.514 -8.083,0.492 -12.733,-0.064l-23.653,-3.009l7.87,-9.435l18.051,2.336c5.23,0.647 9.339,1.014 12.326,1.101c2.987,0.088 5.309,-0.128 6.966,-0.648c1.658,-0.519 3.112,-1.241 4.363,-2.164c0.89,-0.7 2.141,-2.017 3.754,-3.951l7.257,-8.7l-25.173,-20.997l6.257,-7.501Zm25.412,33.917l-13.449,16.124c-2.86,3.429 -4.742,6.406 -5.646,8.93c-0.903,2.525 -0.995,4.941 -0.274,7.247c0.721,2.306 1.997,4.223 3.827,5.749c2.681,2.237 5.697,3.102 9.048,2.596c3.351,-0.506 6.778,-2.859 10.283,-7.061l14.966,-17.943l-18.755,-15.642Z" style="fill:#fff;fill-rule:nonzero;"/><path d="M597.625,676.82l36.614,53.837l20.111,-13.678l4.899,7.203l-48.383,32.905l-4.898,-7.203l20.194,-13.734l-36.615,-53.837l8.078,-5.493Z" style="fill:#fff;fill-rule:nonzero;"/><path d="M560.088,700.985l28.037,68.288l-9.037,3.71l-11.513,-28.042l-35.495,14.573l11.513,28.041l-9.037,3.71l-28.036,-68.287l9.037,-3.71l13.215,32.187l35.495,-14.573l-13.215,-32.187l9.036,-3.71Z" style="fill:#fff;fill-rule:nonzero;"/><path d="M490.479,727.432l12.629,72.731l-52.589,9.131l-1.49,-8.583l42.964,-7.46l-3.868,-22.275l-40.235,6.986l-1.482,-8.533l40.235,-6.986l-4.298,-24.757l-44.651,7.753l-1.49,-8.583l54.275,-9.424Z" style="fill:#fff;fill-rule:nonzero;"/><path d="M393.698,737.973l-9.19,73.245l-27.629,-3.466c-4.863,-0.611 -8.547,-1.31 -11.054,-2.098c-3.522,-1.051 -6.393,-2.57 -8.614,-4.557c-2.22,-1.987 -3.881,-4.589 -4.983,-7.806c-1.102,-3.217 -1.425,-6.641 -0.97,-10.271c0.782,-6.229 3.425,-11.251 7.93,-15.068c4.504,-3.816 11.936,-5.074 22.295,-3.774l18.786,2.357l3.736,-29.778l9.693,1.216Zm-14.513,37.205l-18.936,-2.376c-6.262,-0.785 -10.855,-0.177 -13.779,1.824c-2.924,2.002 -4.651,5.117 -5.182,9.348c-0.384,3.064 0.061,5.784 1.336,8.16c1.275,2.376 3.135,4.073 5.578,5.09c1.578,0.637 4.565,1.232 8.962,1.784l18.736,2.35l3.285,-26.18Z" style="fill:#fff;fill-rule:nonzero;"/><path d="M326.192,727.858l-22.888,70.181l-9.287,-3.029l20.187,-61.899l-34.564,-11.272l2.701,-8.282l43.851,14.301Z" style="fill:#fff;fill-rule:nonzero;"/><path d="M278.564,713.067l-60.182,51.294l-9.244,-5.03l8.741,-79.281l9.775,5.318l-3.122,23.754l27.114,14.752l17.806,-15.764l9.112,4.957Zm-33.197,16.448l-21.983,-11.961l-3.003,21.64c-0.904,6.578 -1.809,11.894 -2.716,15.949c3.088,-3.709 6.499,-7.203 10.233,-10.484l17.469,-15.144Z" style="fill:#fff;fill-rule:nonzero;"/><path d="M211.604,675.007l-48.232,55.883l-7.586,-6.547l8.517,-69.209l-37.869,43.875l-7.09,-6.12l48.233,-55.882l7.586,6.547l-8.55,69.247l37.901,-43.913l7.09,6.119Z" style="fill:#fff;fill-rule:nonzero;"/><path d="M156.237,624.562l-59.312,43.946l-31.776,-42.887l7,-5.186l25.96,35.038l18.166,-13.46l-24.311,-32.812l6.958,-5.156l24.312,32.812l20.189,-14.958l-26.979,-36.413l6.999,-5.186l32.794,44.262Z" style="fill:#fff;fill-rule:nonzero;"/><path d="M108.731,551.4l-58.876,27.798l10.384,21.992l-7.877,3.72l-24.982,-52.911l7.878,-3.719l10.427,22.084l58.875,-27.798l4.171,8.834Z" style="fill:#fff;fill-rule:nonzero;"/><path d="M63.747,494.119l-8.903,1.952l-5.963,-27.2l8.902,-1.952l5.964,27.2Z" style="fill:#fff;fill-rule:nonzero;"/></g><path d="M500.817,379.524c0.786,-0.212 1.597,-0.436 2.258,-0.593c-0.444,0.138 -1.229,0.344 -2.258,0.593Z" style="fill:#fff;"/><g><circle cx="406.849" cy="404.873" r="242.063" style="fill:#fff;"/><g><path d="M558.999,458.667c-7.648,9.976 -24.757,17.404 -62.728,18.523c-47.591,1.402 -87.731,-19.551 -120.91,-36.887c0.148,0.039 0.279,0.062 0.426,0.102c-72.779,-35.462 -125.843,-31.941 -126.945,-2.89c-0.528,13.929 0.897,22.151 6.786,36.154c23.287,55.364 80.723,92.762 146.092,95.192c68.856,2.561 129.098,-38.108 153.009,-97.054c2.141,-5.281 3.697,-9.12 4.815,-11.886c2.221,-5.451 0.779,-2.98 -0.545,-1.254Z" style="fill:#0096a2;fill-rule:nonzero;"/><path d="M334.621,393.28c83.427,15.184 127.291,-1.119 143.413,-5.491c-0.211,0.051 -0.415,0.102 -0.648,0.153c-11.521,2.686 -52.553,10.017 -82.626,-0.062c-3.094,-1.039 -6.087,-2.243 -8.903,-3.674c-26.444,-13.424 -53.434,-36.228 -89.753,-46.721c-28.153,-8.132 -43.166,7.114 -40.532,18.102c3.214,13.447 25.042,27.863 79.049,37.693Z" style="fill:#0096a2;fill-rule:nonzero;"/><path d="M478.025,387.79c0.936,-0.228 1.652,-0.415 2.056,-0.54c-0.602,0.142 -1.341,0.347 -2.056,0.54Z" style="fill:#00a1ac;fill-rule:nonzero;"/><path d="M349.592,326.026c17.62,1.629 37.409,1.351 53.706,0.573c0.057,0 0.113,-0.005 0.176,-0.005c1.749,-0.08 3.572,-0.182 5.395,-0.279c1.556,-0.09 3.077,-0.181 4.542,-0.272c0.409,-0.029 0.823,-0.051 1.232,-0.08c2.09,-0.136 4.066,-0.278 5.923,-0.42c1.266,-0.096 2.533,-0.193 3.816,-0.295c0.993,-0.08 1.925,-0.159 2.816,-0.239c1.845,-0.159 3.476,-0.306 4.838,-0.437c1.136,-0.108 2.022,-0.199 2.777,-0.272c1.312,-0.137 2.089,-0.222 2.089,-0.222c-15.854,1.59 -29.221,1.102 -45.517,-2.964c-5.145,-1.283 -10.567,-2.907 -16.473,-4.957c-20.135,-6.996 -34.956,-24.417 -57.249,-27.915c-22.293,-3.504 -27.387,11.442 -21.294,20.419c6.093,8.972 14.809,13.81 53.223,17.365Z" style="fill:#0096a2;fill-rule:nonzero;"/><path d="M391.391,314.334c16.297,4.066 29.669,4.554 45.517,2.964c0,-0 -0.778,0.085 -2.089,0.222c31.202,-3.072 63.393,-8.546 72.574,-15.224c12.391,-9.006 7.257,-21.277 -10.396,-22.367c-17.655,-1.091 -44.854,10.692 -62.116,20.147c-9.653,5.286 -24.531,11.021 -43.49,14.258Z" style="fill:#89e5d3;fill-rule:nonzero;"/><path d="M459.505,256.92c-10.13,-11.493 -42.44,4.145 -64.824,7.825c-15.008,2.47 -28.653,-2.663 -40.078,-6.462c-14.156,-4.707 -19.164,13.225 -0.494,12.521c15.473,-0.58 35.104,1.391 54.291,3.73c33.774,4.117 61.235,-6.121 51.105,-17.614Z" style="fill:#89e5d3;fill-rule:nonzero;"/><path d="M394.751,381.111c30.073,10.08 71.105,2.748 82.627,0.063c4.854,-1.283 9.658,-2.703 14.36,-4.316c52.956,-18.182 68.242,-37.079 54.251,-49.317c-17.501,-15.303 -57.749,17.007 -89.253,34.014c-19.329,10.437 -40.475,16.581 -61.985,19.556Z" style="fill:#89e5d3;fill-rule:nonzero;"/><path d="M489.418,399.322c-61.536,10.761 -60.395,48.175 -113.624,34.309c-0.147,-0.04 -0.277,-0.062 -0.425,-0.103c33.173,17.337 73.313,38.29 120.909,36.887c44.541,-1.311 60.372,-11.3 65.909,-23.906c1.629,-3.714 2.408,-7.637 2.708,-11.652c1.528,-20.22 -25.235,-44.319 -75.477,-35.535Z" style="fill:#89e5d3;fill-rule:nonzero;"/></g></g><g><path d="M500.817,379.524c1.029,-0.249 1.814,-0.455 2.258,-0.593c-0.661,0.157 -1.472,0.381 -2.258,0.593Z" style="fill:#fff;fill-rule:nonzero;"/></g></svg>