<?xml version="1.0" encoding="UTF-8" standalone="no"?>
<!DOCTYPE svg PUBLIC "-//W3C//DTD SVG 1.1//EN" "http://www.w3.org/Graphics/SVG/1.1/DTD/svg11.dtd">
<svg width="100%" height="100%" viewBox="0 0 151 151" version="1.1" xmlns="http://www.w3.org/2000/svg" xmlns:xlink="http://www.w3.org/1999/xlink" xml:space="preserve" xmlns:serif="http://www.serif.com/" style="fill-rule:evenodd;clip-rule:evenodd;stroke-linejoin:round;stroke-miterlimit:2;">
    <g transform="matrix(1,0,0,1,360.929,195.734)">
        <g transform="matrix(1.53949,0,0,1.53949,-238.022,-161.865)">
            <circle cx="-31.11" cy="26.727" r="48.727" style="fill:white;"/>
        </g>
        <g transform="matrix(0.428768,0,0,0.431018,-139.654,-241.979)">
            <path d="M-345.804,166.2C-344.765,164.626 -343.006,163.68 -341.121,163.68C-339.236,163.68 -337.476,164.626 -336.438,166.2C-330.942,174.528 -322.545,187.249 -322.545,187.249C-322.205,187.764 -321.677,188.125 -321.073,188.253C-320.47,188.381 -319.84,188.267 -319.321,187.935C-319.321,187.935 -306.486,179.734 -298.068,174.356C-296.479,173.341 -294.487,173.191 -292.764,173.958C-291.042,174.725 -289.82,176.305 -289.511,178.165C-287.875,188.02 -285.382,203.045 -285.382,203.045C-285.281,203.654 -284.944,204.198 -284.445,204.561C-283.946,204.923 -283.324,205.075 -282.715,204.983C-282.714,204.983 -267.642,202.71 -257.776,201.222C-255.912,200.941 -254.031,201.615 -252.769,203.016C-251.508,204.417 -251.034,206.358 -251.509,208.183C-254.02,217.84 -257.846,232.557 -257.855,232.592L-257.856,232.592C-258.011,233.189 -257.925,233.823 -257.616,234.357C-257.308,234.891 -256.802,235.283 -256.207,235.447C-256.172,235.456 -241.514,239.501 -231.895,242.155C-230.078,242.656 -228.634,244.037 -228.051,245.83C-227.468,247.623 -227.825,249.589 -229.001,251.062C-235.222,258.863 -244.704,270.751 -244.727,270.779L-244.727,270.78C-245.112,271.262 -245.291,271.876 -245.226,272.489C-245.162,273.103 -244.859,273.666 -244.382,274.058C-244.382,274.058 -232.608,283.738 -224.9,290.075C-223.444,291.272 -222.686,293.121 -222.883,294.996C-223.081,296.871 -224.206,298.521 -225.879,299.39C-234.736,303.985 -248.233,310.989 -248.265,311.006L-248.266,311.006C-248.813,311.29 -249.227,311.778 -249.417,312.365C-249.608,312.951 -249.56,313.589 -249.285,314.141L-249.284,314.141C-249.268,314.173 -242.465,327.773 -238.001,336.697C-237.158,338.383 -237.218,340.38 -238.16,342.013C-239.103,343.645 -240.802,344.696 -242.684,344.808C-252.656,345.405 -267.86,346.315 -267.86,346.315C-268.476,346.352 -269.052,346.629 -269.465,347.088C-269.878,347.546 -270.093,348.148 -270.066,348.765C-270.064,348.801 -269.381,363.992 -268.932,373.96C-268.848,375.843 -269.715,377.643 -271.24,378.751C-272.765,379.86 -274.745,380.128 -276.51,379.465C-285.851,375.958 -300.122,370.602 -300.122,370.602C-300.699,370.385 -301.339,370.404 -301.902,370.655C-302.466,370.906 -302.908,371.368 -303.133,371.942C-303.133,371.942 -308.701,386.132 -312.346,395.42C-313.034,397.175 -314.558,398.467 -316.403,398.859C-318.247,399.251 -320.164,398.691 -321.507,397.368C-328.615,390.365 -339.447,379.692 -339.472,379.667C-339.472,379.667 -339.473,379.667 -339.473,379.666C-339.912,379.234 -340.504,378.991 -341.121,378.991C-341.738,378.991 -342.33,379.234 -342.769,379.666L-342.769,379.667C-342.795,379.692 -353.627,390.365 -360.734,397.368C-362.077,398.691 -363.995,399.251 -365.839,398.859C-367.683,398.467 -369.207,397.175 -369.896,395.42C-373.541,386.132 -379.095,371.976 -379.108,371.943L-379.109,371.942C-379.334,371.368 -379.776,370.906 -380.34,370.655C-380.903,370.404 -381.542,370.385 -382.12,370.602C-382.154,370.614 -396.39,375.958 -405.732,379.465C-407.497,380.128 -409.477,379.86 -411.002,378.751C-412.527,377.643 -413.394,375.843 -413.309,373.96C-412.861,363.992 -412.178,348.801 -412.176,348.765L-412.176,348.764C-412.148,348.148 -412.364,347.546 -412.777,347.088C-413.19,346.629 -413.766,346.352 -414.382,346.315C-414.382,346.315 -429.585,345.405 -439.557,344.808C-441.439,344.696 -443.139,343.645 -444.081,342.013C-445.024,340.38 -445.084,338.383 -444.24,336.697C-439.777,327.773 -432.974,314.174 -432.958,314.141L-432.957,314.141C-432.681,313.589 -432.634,312.951 -432.824,312.365C-433.015,311.778 -433.429,311.29 -433.976,311.006C-433.976,311.006 -447.506,303.985 -456.362,299.39C-458.036,298.521 -459.161,296.871 -459.358,294.996C-459.555,293.121 -458.798,291.272 -457.341,290.075C-449.634,283.738 -437.859,274.058 -437.859,274.058C-437.383,273.666 -437.08,273.103 -437.015,272.489C-436.951,271.876 -437.13,271.262 -437.515,270.779C-437.515,270.779 -447.012,258.872 -453.241,251.062C-454.417,249.589 -454.773,247.623 -454.191,245.83C-453.608,244.037 -452.164,242.656 -450.347,242.155C-440.728,239.501 -426.07,235.456 -426.035,235.447L-426.034,235.447C-425.44,235.283 -424.934,234.891 -424.625,234.357C-424.317,233.823 -424.231,233.189 -424.386,232.592C-424.386,232.592 -428.222,217.84 -430.733,208.183C-431.208,206.358 -430.734,204.417 -429.472,203.016C-428.211,201.615 -426.33,200.941 -424.466,201.222C-414.6,202.71 -399.563,204.978 -399.528,204.983L-399.527,204.983C-398.917,205.075 -398.296,204.923 -397.797,204.561C-397.298,204.198 -396.961,203.654 -396.86,203.045C-396.86,203.045 -394.366,188.02 -392.73,178.165C-392.422,176.305 -391.2,174.725 -389.477,173.958C-387.755,173.191 -385.763,173.341 -384.174,174.356C-375.766,179.728 -362.921,187.935 -362.92,187.935C-362.401,188.267 -361.771,188.381 -361.168,188.253C-360.565,188.125 -360.036,187.764 -359.696,187.249C-359.696,187.249 -351.3,174.528 -345.804,166.2Z"/>
        </g>
    </g>
</svg>
