<?xml version="1.0" encoding="UTF-8" standalone="no"?>
<!DOCTYPE svg PUBLIC "-//W3C//DTD SVG 1.1//EN" "http://www.w3.org/Graphics/SVG/1.1/DTD/svg11.dtd">
<svg width="100%" height="100%" viewBox="0 0 15 15" version="1.1" xmlns="http://www.w3.org/2000/svg" xmlns:xlink="http://www.w3.org/1999/xlink" xml:space="preserve" xmlns:serif="http://www.serif.com/" style="fill-rule:evenodd;clip-rule:evenodd;stroke-linejoin:round;stroke-miterlimit:2;">
    <g transform="matrix(1,0,0,1,94.7054,0.0025)">
        <g transform="matrix(1,0,0,1,-19.6153,0)">
            <path d="M-67.774,-0.002C-63.736,-0.002 -60.458,3.276 -60.458,7.314C-60.458,11.351 -63.736,14.63 -67.774,14.63C-71.812,14.63 -75.09,11.351 -75.09,7.314C-75.09,3.276 -71.812,-0.002 -67.774,-0.002ZM-67.774,0.947C-71.288,0.947 -74.14,3.8 -74.14,7.314C-74.14,10.827 -71.288,13.68 -67.774,13.68C-64.261,13.68 -61.408,10.827 -61.408,7.314C-61.408,3.8 -64.261,0.947 -67.774,0.947Z" style="fill:white;"/>
        </g>
        <g transform="matrix(4.96136e-17,0.810252,-0.810252,4.96136e-17,-80.846,76.9119)">
            <path d="M-84.705,4.577L-82.209,9.567C-82.003,9.98 -82.025,10.469 -82.268,10.861C-82.51,11.253 -82.938,11.492 -83.399,11.492L-88.389,11.492C-88.85,11.492 -89.278,11.253 -89.521,10.861C-89.763,10.469 -89.785,9.98 -89.579,9.567L-87.084,4.577C-86.858,4.126 -86.398,3.842 -85.894,3.842C-85.39,3.842 -84.93,4.126 -84.705,4.577ZM-85.753,5.101C-85.78,5.048 -85.835,5.014 -85.894,5.014C-85.954,5.014 -86.008,5.048 -86.035,5.101L-88.53,10.092C-88.555,10.14 -88.552,10.198 -88.523,10.245C-88.495,10.291 -88.444,10.319 -88.389,10.319L-83.399,10.319C-83.344,10.319 -83.294,10.291 -83.265,10.245C-83.236,10.198 -83.234,10.14 -83.258,10.092L-85.753,5.101Z" style="fill:white;"/>
        </g>
    </g>
</svg>
