<?xml version="1.0" encoding="UTF-8" standalone="no"?>
<!DOCTYPE svg PUBLIC "-//W3C//DTD SVG 1.1//EN" "http://www.w3.org/Graphics/SVG/1.1/DTD/svg11.dtd">
<svg width="100%" height="100%" viewBox="0 0 2094 2492" version="1.1" xmlns="http://www.w3.org/2000/svg" xmlns:xlink="http://www.w3.org/1999/xlink" xml:space="preserve" xmlns:serif="http://www.serif.com/" style="fill-rule:evenodd;clip-rule:evenodd;stroke-linejoin:round;stroke-miterlimit:2;">
    <path d="M1750.7,1316.8C1749.6,1112.6 1841.9,958.5 2028.8,845.1C1924.2,695.5 1766.2,613.1 1557.6,597C1360.1,581.4 1144.3,712.2 1065.3,712.2C981.9,712.2 790.5,602.6 640.3,602.6C329.9,607.5 0,850 0,1343.5C0,1489.2 26.7,1639.8 80.1,1795.2C151.3,1999.4 408.3,2500 676.5,2491.7C816.7,2488.4 915.7,2392.1 1098.2,2392.1C1275.1,2392.1 1366.9,2491.7 1523.2,2491.7C1793.6,2487.8 2026.1,2032.8 2094,1828C1731.2,1657.2 1750.7,1327.3 1750.7,1316.8ZM1435.8,403.3C1587.7,223.1 1573.8,59 1569.3,0C1435.2,7.8 1280,91.2 1191.6,194.1C1094.2,304.2 1036.9,440.5 1049.2,594.1C1194.4,605.3 1326.8,530.7 1435.8,403.3Z" style="fill:white;fill-rule:nonzero;"/>
</svg>
