<?xml version="1.0" encoding="UTF-8" standalone="no"?>
<!DOCTYPE svg PUBLIC "-//W3C//DTD SVG 1.1//EN" "http://www.w3.org/Graphics/SVG/1.1/DTD/svg11.dtd">
<svg width="100%" height="100%" viewBox="0 0 2500 1085" version="1.1" xmlns="http://www.w3.org/2000/svg" xmlns:xlink="http://www.w3.org/1999/xlink" xml:space="preserve" xmlns:serif="http://www.serif.com/" style="fill-rule:evenodd;clip-rule:evenodd;stroke-linejoin:round;stroke-miterlimit:2;">
    <path d="M506.4,1077.1C502.5,1073.2 499.6,1064.4 499.6,1058.5C499.6,1051.7 495.7,992.2 490.8,925.9L482,805L491.8,591.5C501.5,374 502.5,366.3 519.1,366.3C522,366.3 527.9,368.2 531.8,372.2C537.7,377.1 540.6,404.4 550.3,587.7L562,798.2L550.3,935.7C543.5,1011.7 536.7,1076.1 533.7,1079C526.9,1086.8 515.1,1085.8 506.4,1078.1L506.4,1077.1ZM605.9,1074.2C601,1067.4 597.1,1026.4 590.3,927.9C582.5,810.9 581.5,777.7 585.4,690C587.3,634.4 591.3,524.2 594.2,445.2C597.1,366.2 600.1,297 601,289.2C604.9,263.8 634.2,260 640,284.3C641,289.2 646.8,407.1 652.7,545.6L663.4,798.2L652.7,928.9C648.9,974.1 645.3,1019.3 642,1064.5C642,1072.2 629.3,1083 620.6,1083C615.7,1083 609.9,1079.1 606,1073.3L605.9,1074.2ZM707.3,1076.2C700.5,1069.4 698.5,1058.6 696.6,1008C694.6,974.8 691.7,925.1 689.8,897.8C683.9,828.6 684.9,738.9 691.7,525.3C695.6,423.9 698.5,321.5 698.5,296.2C699.5,244.5 703.4,228.9 717.1,225C733.7,221.1 746.3,232.8 746.3,253.3C746.3,263.1 751.2,389.8 756.1,534.1L765.9,796.4L756.1,928C751.2,1000.1 746.3,1061.6 746.3,1064.5C746.3,1072.2 733.6,1083 723.9,1083C719,1083 712.2,1079.1 707.3,1075.2L707.3,1076.2ZM808.7,1076.2C803.8,1070.3 800.9,1058.6 798.9,1040.1C784.3,817.8 784.3,802.1 791.1,570.1C799.9,250.3 801.8,220 809.6,212.2C817.4,204.4 838.9,204.4 845.7,212.2C849.6,216.1 852.5,272.7 857.4,399.4C869.1,753.4 870.1,809.9 862.3,925.9C853.5,1057.5 852.6,1069.2 843.8,1077C835,1085.8 819.4,1084.8 809.7,1075.1L808.7,1076.2ZM910.1,1075.2C905.2,1070.3 901.3,1059.6 901.3,1052.8C901.3,1046 898.4,987.5 894.5,923.1C887.7,814.9 887.7,784.6 894.5,522.3C902.3,218.1 902.3,222.9 924.7,218.1C944.2,214.2 956.9,230.8 956.9,261C956.9,274.6 958.8,345.8 960.8,418C962.7,490.2 965.7,600.3 967.6,662.8C968.6,724.2 970.5,777.9 971.5,780.8C972.5,783.7 969.5,845.1 964.7,917.3C961.4,964.1 958.5,1010.9 955.9,1057.8C955.9,1069.5 940.3,1085.1 926.7,1085.1C919.5,1084.5 912.8,1081 908.2,1075.3L910.1,1075.2ZM1014.5,1076.2C1005.7,1067.4 1004.7,1056.7 996,900.7C991.1,810 992.1,714.5 1000.9,405.3C1005.8,239.6 1005.8,236.6 1032.1,236.6C1040.9,236.6 1049.7,239.5 1054.5,245.4C1063.3,254.2 1063.3,261 1067.2,403.3C1068.2,448.1 1072.1,557.4 1074,645.1C1077.9,788.4 1077.9,818.7 1070.1,936.7C1062.3,1063.5 1061.3,1068.3 1051.6,1076.1C1038.9,1085.8 1023.3,1085.8 1012.6,1076.1L1014.5,1076.2ZM1117.8,1076.2C1111.9,1070.3 1109,1059.6 1107.1,1040.1C1100.3,965 1095.4,778.8 1097.3,668.6C1098.3,600.4 1101.2,496 1102.2,434.6C1107.1,187.9 1109,148.9 1117.8,140.2C1128.5,129.5 1150,129.5 1159.7,140.2C1170.4,150.9 1171.4,182.1 1181.1,658C1184,801.3 1174.3,1052.9 1164.5,1070.4C1155.7,1087 1130.4,1089.9 1116.7,1076.3L1117.8,1076.2ZM1224.1,1075.2C1216.9,1069.7 1212,1061.7 1210.5,1052.8C1209.5,1045 1205.6,981.6 1201.7,911.4C1196.8,811 1195.8,750.5 1198.8,627.6C1200.8,541.8 1203.7,399.5 1205.6,311.7C1208.5,110.8 1210.5,91.3 1222.2,79.6C1234.9,67.9 1253.4,68.9 1267.1,81.5C1276.9,91.3 1277.8,95.1 1278.8,144.9C1278.8,174.1 1279.8,203.4 1280.7,209.2C1281.6,215 1282.7,297.9 1284.6,393.4C1286.6,488.9 1288.5,568 1289.5,569C1294.4,576.8 1290.5,859.6 1284.6,947.3C1281.9,983 1279.6,1018.8 1277.8,1054.6C1277.8,1065.3 1258.3,1083.8 1245.6,1083.8C1239.7,1084 1229.9,1080.1 1224.1,1075.2ZM1318.7,1073.2L1307.9,1062.4L1307.9,54.3L1319.6,45.5C1333.2,34.8 1384.9,18.2 1436.6,7.5C1492.2,-3.2 1582.9,-2.3 1640.4,9.4C1870.5,57.2 2034.3,233.7 2071.4,473.5L2074.3,489.1L2112.4,478.4C2144.6,469.6 2156.3,467.7 2198.2,469.6C2257.7,472.5 2260.6,472.5 2299.6,487.1C2471.3,552.4 2549.2,750.4 2466.4,914.2C2428.3,990.2 2373.7,1038 2290.8,1068.3L2259.6,1080L1331.4,1082L1318.7,1073.2ZM404,1069.3C402.1,1064.4 396.2,1000.1 390.4,926.9C380.6,798.2 380.6,792.3 387.5,710.5C391.4,664.6 395.3,608.1 397.3,585.7C400.2,544.8 407.1,525.2 417.8,525.2C431.4,525.2 435.4,540.8 447.1,664.7L458.8,791.5L447,926C441.1,1000.1 434.3,1064.5 432.4,1070.3C430.5,1077.1 425.6,1080.1 417.8,1080.1C410,1080.1 406.1,1077.2 403.2,1070.3L404,1069.3ZM306.6,1071.3C305.6,1069.3 298.8,1006.9 293,932.8L281.3,798.2L293,658.8C298.9,581.8 306.6,516.4 308.6,513.5C314.5,506.7 323.2,506.7 329.1,513.5C332,516.4 339.8,580.8 346.7,657.8L359.4,796.3L346.7,930.9C339.9,1005 333.1,1067.4 332.1,1070.3C330.2,1076.2 309.7,1078.1 306.7,1072.2L306.6,1071.3ZM210,1060.6C208.1,1057.7 201.2,998.2 195.4,928L183.7,800.2L194.4,679.3C200.3,613 206.1,549.6 207.1,539.9C210,520.4 218.8,512.6 227.6,521.3C230.5,524.2 238.3,581.8 246.2,658.8L259.8,791.4L247,919.2C240.2,989.4 232.4,1050.8 230.4,1056.6C225.5,1067.4 215.8,1069.3 209.9,1061.5L210,1060.6ZM111.5,1019.6C110.5,1015.7 103.7,962.1 97.9,901.6L86.2,791.5L98.9,679.4C110.6,572.1 112.5,567.3 121.3,565.3C132,563.3 131,558.5 148.6,694L161.3,795.4L148.6,901.7C141.8,960.2 134,1011.9 132,1017.7C127.1,1029.4 116.4,1030.5 113.4,1019.7L111.5,1019.6ZM20.8,937.7C16.2,913.4 12.3,889.1 9.1,864.6L0.3,798.3L10.1,728.1C15,689.1 21.8,654.9 23.7,652.1C33.4,640.4 40.3,658.9 50,728.1L60.7,798.3L50,868.5C44.1,907.5 36.4,940.6 33.4,942.6C25.6,947.5 22.7,946.5 19.8,938.7L20.8,937.7Z" style="fill:white;fill-rule:nonzero;"/>
</svg>
