<?xml version="1.0" encoding="UTF-8" standalone="no"?>
<!DOCTYPE svg PUBLIC "-//W3C//DTD SVG 1.1//EN" "http://www.w3.org/Graphics/SVG/1.1/DTD/svg11.dtd">
<svg width="100%" height="100%" viewBox="0 0 38 38" version="1.1" xmlns="http://www.w3.org/2000/svg" xmlns:xlink="http://www.w3.org/1999/xlink" xml:space="preserve" xmlns:serif="http://www.serif.com/" style="fill-rule:evenodd;clip-rule:evenodd;stroke-linejoin:round;stroke-miterlimit:2;">
    <path d="M18.7,0C8.2,0 0,8.4 0,18.7C0,29 8.4,37.4 18.8,37.4C29.1,37.4 37.5,29 37.5,18.7C37.5,8.4 29.2,0 18.7,0ZM9.4,25.6C8.7,25.7 8.1,25.3 8,24.7C7.9,24.1 8.2,23.4 8.9,23.3C16,21.7 22.2,22.4 27.1,25.4C27.6,25.7 27.8,26.5 27.5,27C27.2,27.6 26.4,27.7 25.9,27.4C21.4,24.7 15.9,24.1 9.4,25.6ZM29.7,21.9C29.1,22.6 28.4,22.8 27.7,22.4C22.7,19.3 15,18.4 9,20.2C8.2,20.4 7.4,20 7.2,19.2C7,18.4 7.4,17.6 8.2,17.4C15,15.3 23.5,16.3 29.3,19.9C29.9,20.3 30.3,21.2 29.7,21.9ZM29.9,16.6C23.9,13 13.9,12.7 8.1,14.4C7.2,14.7 6.2,14.2 5.9,13.2C5.6,12.3 6.1,11.3 7.1,11C13.7,9 24.7,9.4 31.7,13.5C32.5,14 32.8,15.1 32.3,15.9C31.8,16.8 30.8,17.1 29.9,16.6Z" style="fill:white;fill-rule:nonzero;"/>
</svg>
