<?xml version="1.0" encoding="UTF-8" standalone="no"?>
<!DOCTYPE svg PUBLIC "-//W3C//DTD SVG 1.1//EN" "http://www.w3.org/Graphics/SVG/1.1/DTD/svg11.dtd">
<svg width="100%" height="100%" viewBox="0 0 58 39" version="1.1" xmlns="http://www.w3.org/2000/svg" xmlns:xlink="http://www.w3.org/1999/xlink" xml:space="preserve" xmlns:serif="http://www.serif.com/" style="fill-rule:evenodd;clip-rule:evenodd;stroke-linejoin:round;stroke-miterlimit:2;">
    <g id="Plan-de-travail1" serif:id="Plan de travail1" transform="matrix(0.984397,0,0,1.00014,9.35144,-0.000861801)">
        <rect x="-9.5" y="0.001" width="58.046" height="37.999" style="fill:none;"/>
        <clipPath id="_clip1">
            <rect x="-9.5" y="0.001" width="58.046" height="37.999"/>
        </clipPath>
        <g clip-path="url(#_clip1)">
            <g transform="matrix(0.540498,0,0,-0.531388,29.1679,9.5031)">
                <path d="M0,0L-17.873,-17.877L-35.751,0L-17.873,17.87L0,0Z" style="fill:white;fill-rule:nonzero;"/>
            </g>
            <g transform="matrix(0.540498,0,0,-0.531388,29.1679,28.5012)">
                <path d="M0,0L-17.873,-17.877L-35.751,0L-17.873,17.877L0,0Z" style="fill:white;fill-rule:nonzero;"/>
            </g>
            <g transform="matrix(0.540498,0,0,-0.531388,9.84516,9.50385)">
                <path d="M0,0L-17.877,-17.877L-35.751,0L-17.877,17.873L0,0Z" style="fill:white;fill-rule:nonzero;"/>
            </g>
            <g transform="matrix(0.540498,0,0,-0.531388,48.4898,9.50385)">
                <path d="M0,0L-17.873,-17.877L-35.751,0L-17.873,17.873L0,0Z" style="fill:white;fill-rule:nonzero;"/>
            </g>
        </g>
    </g>
</svg>
