<?xml version="1.0" encoding="UTF-8" standalone="no"?>
<!DOCTYPE svg PUBLIC "-//W3C//DTD SVG 1.1//EN" "http://www.w3.org/Graphics/SVG/1.1/DTD/svg11.dtd">
<svg width="100%" height="100%" viewBox="0 0 26 19" version="1.1" xmlns="http://www.w3.org/2000/svg" xmlns:xlink="http://www.w3.org/1999/xlink" xml:space="preserve" xmlns:serif="http://www.serif.com/" style="fill-rule:evenodd;clip-rule:evenodd;stroke-linejoin:round;stroke-miterlimit:2;">
    <path d="M25.4,2.8C25.1,1.7 24.2,0.8 23.1,0.5C21.1,0 13,0 13,0C13,0 4.9,0 2.8,0.5C1.7,0.8 0.8,1.7 0.5,2.8C0,4.9 0,9.1 0,9.1C0,9.1 0,13.3 0.5,15.3C0.8,16.4 1.7,17.3 2.8,17.6C4.8,18.1 12.9,18.1 12.9,18.1C12.9,18.1 21,18.1 23,17.6C24.1,17.3 25,16.4 25.3,15.3C25.8,13.3 25.8,9.1 25.8,9.1C25.8,9.1 26,4.9 25.4,2.8ZM10.4,13L10.4,5.2L17.1,9.1L10.4,13Z" style="fill:white;fill-rule:nonzero;"/>
</svg>
