<?xml version="1.0" encoding="UTF-8" standalone="no"?>
<!DOCTYPE svg PUBLIC "-//W3C//DTD SVG 1.1//EN" "http://www.w3.org/Graphics/SVG/1.1/DTD/svg11.dtd">
<svg width="100%" height="100%" viewBox="0 0 34 34" version="1.1" xmlns="http://www.w3.org/2000/svg" xmlns:xlink="http://www.w3.org/1999/xlink" xml:space="preserve" xmlns:serif="http://www.serif.com/" style="fill-rule:evenodd;clip-rule:evenodd;stroke-linejoin:round;stroke-miterlimit:2;">
    <path d="M11.3,17C11.3,13.9 13.8,11.3 17,11.3C20.2,11.3 22.7,13.8 22.7,17C22.7,20.2 20.2,22.7 17,22.7C13.8,22.7 11.3,20.1 11.3,17M8.2,17C8.2,21.8 12.1,25.7 16.9,25.7C21.7,25.7 25.6,21.8 25.6,17C25.6,12.2 21.8,8.3 17,8.3C12.2,8.3 8.2,12.2 8.2,17M24,7.9C24,9 24.9,9.9 26,9.9C27.1,9.9 28,9 28,7.9C28,6.8 27.1,5.9 26,5.9C24.9,5.9 24,6.8 24,7.9M10.1,30.8C8.4,30.7 7.5,30.4 6.9,30.2C6.1,29.9 5.5,29.5 4.9,28.9C4.3,28.3 3.9,27.7 3.6,26.9C3.4,26.3 3.1,25.4 3,23.7L3,17C3,12.5 3,11.9 3.1,10.1C3.2,8.5 3.5,7.6 3.7,7C4,6.2 4.4,5.6 5,5C5.6,4.4 6.2,4 7,3.7C7.6,3.5 8.5,3.2 10.2,3.1C12,3 12.5,3 17.1,3C21.6,3 22.2,3 24,3.1C25.7,3.2 26.6,3.5 27.2,3.7C28,4 28.6,4.4 29.2,5C29.8,5.6 30.2,6.2 30.5,7C30.7,7.6 31,8.5 31.1,10.2C31.2,12 31.2,12.5 31.2,17.1C31.2,21.6 31.2,22.2 31.1,24C31,25.7 30.7,26.6 30.5,27.2C30.2,28 29.8,28.6 29.2,29.2C28.6,29.8 28,30.2 27.2,30.5C26.6,30.7 25.7,31 24,31.1C22.2,31.2 21.7,31.2 17.1,31.2C12.4,30.9 11.9,30.9 10.1,30.8M9.9,0.1C8.1,0.2 6.9,0.5 5.8,0.9C4.7,1.3 3.7,1.9 2.8,2.9C1.9,3.8 1.3,4.8 0.8,5.9C0.4,6.9 0.1,8.2 0.1,10C0,11.8 0,12.4 0,17C0,21.6 0,22.2 0.1,24C0.2,25.8 0.5,27 0.9,28.1C1.3,29.2 1.9,30.2 2.9,31.1C3.8,32 4.8,32.6 5.9,33.1C7,33.5 8.2,33.8 10,33.9C11.8,34 12.4,34 17,34C21.6,34 22.2,34 24,33.9C25.8,33.8 27,33.5 28.1,33.1C29.2,32.7 30.2,32.1 31.1,31.1C32,30.2 32.6,29.2 33.1,28.1C33.5,27 33.8,25.8 33.9,24C34,22.2 34,21.6 34,17C34,12.4 34,11.8 33.9,10C33.8,8.2 33.5,7 33.1,5.9C32.7,4.8 32.1,3.8 31.1,2.9C30.2,2 29.2,1.4 28.1,0.9C27,0.5 25.8,0.2 24,0.1C22.1,0 21.6,0 17,0C12.3,0 11.8,0 9.9,0.1" style="fill:white;fill-rule:nonzero;"/>
</svg>
