<?xml version="1.0" encoding="UTF-8" standalone="no"?>
<!DOCTYPE svg PUBLIC "-//W3C//DTD SVG 1.1//EN" "http://www.w3.org/Graphics/SVG/1.1/DTD/svg11.dtd">
<svg width="100%" height="100%" viewBox="0 0 34 34" version="1.1" xmlns="http://www.w3.org/2000/svg" xmlns:xlink="http://www.w3.org/1999/xlink" xml:space="preserve" xmlns:serif="http://www.serif.com/" style="fill-rule:evenodd;clip-rule:evenodd;stroke-linejoin:round;stroke-miterlimit:2;">
    <path d="M31.7,13.8L30.9,13.8C27.8,13.8 25,12.3 23.3,9.7L23.3,23.7C23.3,29.4 18.7,34.1 12.9,34.1C7.1,34.1 2.5,29.5 2.5,23.8C2.5,18.1 7.1,13.4 12.9,13.4L13.5,13.4L13.5,18.5C13.3,18.5 13.1,18.4 12.9,18.4C10,18.4 7.6,20.8 7.6,23.7C7.6,26.6 10,29 12.9,29C15.8,29 18.4,26.7 18.4,23.8L18.4,0L23.3,0C23.8,4.4 27.3,7.8 31.7,8.1L31.7,13.8" style="fill:white;fill-rule:nonzero;"/>
</svg>
